<?xml version="1.0" encoding="UTF-8"?>
<svg width="64px" height="26px" viewBox="0 0 64 26" version="1.1" xmlns="http://www.w3.org/2000/svg" xmlns:xlink="http://www.w3.org/1999/xlink">
    <title>Logos/Customers/Hibu</title>
    <defs>
        <polygon id="path-1" points="47.2025126 7.68468521 62.9252864 7.68468521 62.9252864 23.7998527 47.2025126 23.7998527"></polygon>
        <polygon id="path-3" points="18.3172183 -1.40949249 25.020545 -1.40949249 25.020545 5.27755795 18.3172183 5.27755795"></polygon>
        <polygon id="path-5" points="46.2021739 -1.40949249 52.9076374 -1.40949249 52.9076374 5.27755795 46.2021739 5.27755795"></polygon>
        <polygon id="path-7" points="57.1274503 -1.40949249 63.8293681 -1.40949249 63.8293681 5.27755795 57.1274503 5.27755795"></polygon>
    </defs>
    <g id="Contact" stroke="none" stroke-width="1" fill="none" fill-rule="evenodd">
        <g transform="translate(-313.000000, -1888.000000)" id="3rd-Fold">
            <g transform="translate(165.000000, 1772.000000)">
                <g id="Logos" transform="translate(2.000000, 118.000000)">
                    <g id="Group" transform="translate(146.000000, 0.000000)">
                        <g id="Hibu" transform="translate(0.000000, 0.067729)">
                            <path d="M0,2.18727144 C0,1.38859218 0.233005025,0.827172512 0.704951005,0.498118867 C1.18069598,0.169065221 1.80958794,0 2.5895691,0 C3.14517211,0 3.64394849,0.0702465206 4.08518593,0.2072667 C4.53101382,0.333947223 4.81459296,0.423610198 4.93774372,0.464021679 L4.93774372,8.61198663 C5.3235,8.25238759 5.86271985,7.93375253 6.53625,7.64921466 C7.21365829,7.36254571 8.08774372,7.2199216 9.16001005,7.2199216 C10.0839573,7.2199216 10.9416595,7.35141677 11.7213241,7.60398853 C12.5047085,7.86626852 13.1862324,8.25996475 13.7719108,8.80054724 C14.3571935,9.35786261 14.8214623,10.0417006 15.144456,10.8626378 C15.4723568,11.70236 15.6372965,12.6693941 15.6372965,13.8040727 L15.6372965,23.3726749 L10.6745427,23.3726749 L10.6745427,14.821858 C10.6745427,13.7762109 10.4424874,13.0207056 9.97655653,12.5385303 C9.51505779,12.0766397 8.82371985,11.8359073 7.8973191,11.8359073 C6.9698103,11.8359073 6.24641834,12.1113684 5.74067714,12.6609487 C5.22132286,13.2168434 4.97051005,14.0850588 4.97051005,15.2546239 L4.97051005,23.3726749 L0,23.3726749 L0,2.18727144 Z" id="Fill-1" fill="#25231E"></path>
                            <path d="M19.1843389,9.86220106 C19.1843389,9.06146965 19.4250211,8.49933963 19.9007661,8.18141493 C20.3664595,7.84888842 20.9925814,7.68471678 21.7759658,7.68471678 C22.3319646,7.68471678 22.8366769,7.75006972 23.291844,7.88290668 C23.7397296,8.01440185 24.0267912,8.10769555 24.1534244,8.14108238 L24.1534244,23.3726591 L19.1843389,23.3726591 L19.1843389,9.86220106 Z" id="Fill-3" fill="#25231E"></path>
                            <path d="M30.1713965,1.62514931 C30.7323023,1.62514931 31.2306829,1.69681654 31.6778563,1.82404957 C32.1174317,1.9562551 32.4044932,2.0432345 32.524399,2.08569812 L32.524399,8.94104817 C32.8986791,8.56747876 33.4588726,8.19604041 34.2081452,7.82176064 C34.9552018,7.44329764 35.9032884,7.25126417 37.052247,7.25126417 C38.1000573,7.25126417 39.0871628,7.45087479 40.0017709,7.85372675 C40.9345033,8.24260833 41.7345874,8.8067905 42.4231553,9.5323818 C43.1130686,10.239267 43.6516553,11.112376 44.0562482,12.1232156 C44.455301,13.1499987 44.651345,14.2687337 44.651345,15.5195954 C44.651345,16.7606698 44.4329819,17.8801152 44.0032206,18.9125023 C43.5755962,19.927604 42.9798663,20.8048962 42.213894,21.5296982 C41.4555987,22.2372938 40.5570573,22.8028967 39.5162118,23.2057486 C38.4740209,23.5946302 37.3522093,23.7998448 36.1390636,23.7998448 C34.6580887,23.7998448 33.3088915,23.5361441 32.0971704,22.9969823 C30.886399,22.4773159 29.887105,21.684872 29.1053827,20.673401 C28.611909,20.0075587 28.2292394,19.1964087 27.9648136,18.2405036 C27.6948475,17.2637612 27.5654442,16.1359494 27.5654442,14.8218659 L27.5654442,3.81028967 C27.5654442,3.0088479 27.8005862,2.44742824 28.2805259,2.12042674 C28.7513638,1.7941356 29.3834216,1.62514931 30.1713965,1.62514931 Z M36.0337206,11.7782183 C35.5168198,11.7782183 35.0459819,11.8713542 34.6169329,12.0654398 C34.1878839,12.2629982 33.8111503,12.5329343 33.494409,12.8662501 C33.1748977,13.2099055 32.9321578,13.5994975 32.759541,14.0733063 C32.5843915,14.5212266 32.4958274,15.0180036 32.4958274,15.562059 C32.4958274,16.7044726 32.834492,17.6123102 33.494409,18.2613407 C34.1641402,18.925052 35.0090209,19.2485806 36.0337206,19.2485806 C37.0550171,19.2485806 37.8991854,18.9125023 38.5702621,18.2405036 C39.227409,17.5587177 39.5671817,16.6633508 39.5671817,15.562059 C39.5671817,14.456584 39.227409,13.5424321 38.5702621,12.8418611 C37.8991854,12.1232156 37.0550171,11.7782183 36.0337206,11.7782183 Z" id="Combined-Shape" fill="#25231E"></path>
                            <mask id="mask-2" fill="white">
                                <use xlink:href="#path-1"></use>
                            </mask>
                            <g id="Clip-8"></g>
                            <path d="M52.1604384,16.0511247 C52.1604384,18.1911179 53.1321897,19.2493146 55.0702312,19.2493146 C56.999804,19.2493146 57.9596834,18.1911179 57.9596834,16.0511247 L57.9596834,9.86153806 C57.9596834,9.06080665 58.1912638,8.49930806 58.6747651,8.18209371 C59.1429121,7.84885685 59.7693505,7.68468521 60.555505,7.68468521 C61.1185477,7.68468521 61.6186696,7.74869636 62.0617274,7.8836644 C62.5171319,8.01444921 62.8038769,8.10900576 62.9252864,8.14034045 L62.9252864,16.9680391 C62.9252864,18.1291589 62.7334372,19.1178195 62.3253618,19.9741956 C61.9270214,20.8222053 61.3737927,21.5332737 60.6803178,22.1002973 C59.9820942,22.667242 59.1429121,23.0873793 58.1829535,23.3727065 C57.2090653,23.6564551 56.1745515,23.7998685 55.0702312,23.7998685 C53.951902,23.7998685 52.9104234,23.6564551 51.9525226,23.3727065 C50.9794259,23.0873793 50.1464171,22.667242 49.4474812,22.1002973 C48.7498116,21.5332737 48.1986407,20.8222053 47.7955515,19.9741956 C47.3964987,19.1178195 47.2025126,18.1291589 47.2025126,16.9680391 L47.2025126,9.86153806 C47.2025126,9.06080665 47.4333807,8.49930806 47.9050101,8.18209371 C48.3800427,7.84885685 49.0079058,7.68468521 49.7850377,7.68468521 C50.339691,7.68468521 50.8467776,7.74869636 51.2981457,7.8836644 C51.7564786,8.01444921 52.0404535,8.10900576 52.1604384,8.14034045 L52.1604384,16.0511247 Z" id="Fill-7" fill="#25231E" mask="url(#mask-2)"></path>
                            <mask id="mask-4" fill="white">
                                <use xlink:href="#path-3"></use>
                            </mask>
                            <g id="Clip-11"></g>
                            <path d="M18.3172183,1.9507143 C18.3172183,1.01217343 18.6387874,0.210731669 19.2756731,-0.438377753 C19.9094721,-1.08180431 20.702354,-1.40951617 21.6510739,-1.40951617 C22.6012183,-1.40951617 23.3954457,-1.08180431 24.0470525,-0.438377753 C24.6985802,0.210731669 25.020545,1.01217343 25.020545,1.9507143 C25.020545,2.90306769 24.6985802,3.68998658 24.0470525,4.32441527 C23.3954457,4.96452682 22.6012183,5.27755795 21.6510739,5.27755795 C20.702354,5.27755795 19.9094721,4.96452682 19.2756731,4.32441527 C18.6387874,3.68998658 18.3172183,2.90306769 18.3172183,1.9507143" id="Fill-10" fill="#5591CD" mask="url(#mask-4)"></path>
                            <mask id="mask-6" fill="white">
                                <use xlink:href="#path-5"></use>
                            </mask>
                            <g id="Clip-14"></g>
                            <path d="M46.2021739,1.9507143 C46.2021739,1.01217343 46.5230307,0.210731669 47.1606286,-0.438377753 C47.796248,-1.08180431 48.5893673,-1.40951617 49.5367417,-1.40951617 C50.4826915,-1.40951617 51.2828548,-1.08180431 51.937944,-0.438377753 C52.5790244,0.210731669 52.9076374,1.01217343 52.9076374,1.9507143 C52.9076374,2.90306769 52.5790244,3.68998658 51.937944,4.32441527 C51.2828548,4.96452682 50.4826915,5.27755795 49.5367417,5.27755795 C48.5893673,5.27755795 47.796248,4.96452682 47.1606286,4.32441527 C46.5230307,3.68998658 46.2021739,2.90306769 46.2021739,1.9507143" id="Fill-13" fill="#E00069" mask="url(#mask-6)"></path>
                            <mask id="mask-8" fill="white">
                                <use xlink:href="#path-7"></use>
                            </mask>
                            <g id="Clip-17"></g>
                            <path d="M57.1274503,1.9507143 C57.1274503,1.01217343 57.4392053,0.210731669 58.0775947,-0.438377753 C58.7173296,-1.08180431 59.5063334,-1.40951617 60.4598812,-1.40951617 C61.4121626,-1.40951617 62.2067857,-1.08180431 62.8610834,-0.438377753 C63.5001852,0.210731669 63.8294314,1.01217343 63.8294314,1.9507143 C63.8294314,2.90306769 63.5001852,3.68998658 62.8610834,4.32441527 C62.2067857,4.96452682 61.4121626,5.27755795 60.4598812,5.27755795 C59.5063334,5.27755795 58.7173296,4.96452682 58.0775947,4.32441527 C57.4392053,3.68998658 57.1274503,2.90306769 57.1274503,1.9507143" id="Fill-16" fill="#54AF46" mask="url(#mask-8)"></path>
                        </g>
                    </g>
                </g>
            </g>
        </g>
    </g>
</svg>