<?xml version="1.0" encoding="UTF-8"?>
<svg width="119px" height="24px" viewBox="0 0 119 24" version="1.1" xmlns="http://www.w3.org/2000/svg" xmlns:xlink="http://www.w3.org/1999/xlink">
    <title>Logos/Customers/Ionos</title>
    <g id="Contact" stroke="none" stroke-width="1" fill="none" fill-rule="evenodd">
        <g transform="translate(-665.000000, -1890.000000)" fill="#171C34" fill-rule="nonzero" id="3rd-Fold">
            <g transform="translate(165.000000, 1772.000000)">
                <g id="Logos" transform="translate(2.000000, 118.000000)">
                    <g id="Logos/Customers/Ionos" transform="translate(498.647059, 0.000000)">
                        <path d="M23.3770769,1.09684655 C20.5605814,-0.653284725 16.8527318,-0.236314807 13.5457618,1.83025665 C10.2491296,-0.236314807 6.5389827,-0.653284725 3.7259332,1.09684655 C-0.723945841,3.8625566 -1.26496108,10.9853167 2.51869962,17.0068193 C5.30762742,21.4461209 9.66906023,24.0473278 13.551505,23.9993477 C17.4339498,24.0473278 21.7953826,21.4461209 24.5843104,17.0068193 C28.3633765,10.9853167 27.8269559,3.8625566 23.3770769,1.09684655 Z M4.56444938,15.7353466 C3.78427192,14.5053007 3.1956318,13.1649798 2.81849787,11.7598526 C2.48343058,10.5401265 2.35532024,9.27335063 2.43944261,8.01169288 C2.6082945,5.78633014 3.51917578,4.05333462 5.00323456,3.13143127 C6.48729334,2.20952791 8.44919148,2.15355113 10.53859,2.9783519 C10.8521721,3.10287168 11.1623082,3.24681198 11.470147,3.40560327 C10.3090744,4.45850752 9.29947896,5.66556267 8.46986722,6.99268694 C6.17256261,10.6483136 5.4718847,14.7163407 6.27364401,17.959567 C5.63434715,17.2736877 5.06204238,16.5289323 4.56444938,15.7353466 L4.56444938,15.7353466 Z M24.2856608,11.7587102 C23.9080295,13.1636644 23.3194211,14.5039129 22.5397093,15.7342042 C22.0416916,16.5289181 21.4694265,17.2751517 20.8305147,17.9629941 C21.5472737,15.0556285 21.0602452,11.4936773 19.3028071,8.15334841 C19.2460451,8.04209509 19.1445547,7.95996087 19.0234884,7.92730113 C18.902422,7.89464139 18.773111,7.91451291 18.6676024,7.98199091 L13.1885309,11.3862933 C13.0875988,11.4489272 13.0158629,11.5489179 12.9891432,11.6642143 C12.9624235,11.7795106 12.9829147,11.9006421 13.046098,12.0008955 L13.8501546,13.2792224 C13.9129146,13.3795269 14.0132508,13.450849 14.1289929,13.4774294 C14.244735,13.5040099 14.3663554,13.4836606 14.4669809,13.420878 L18.0186139,11.2137934 C18.1334791,11.5565084 18.2483443,11.8992234 18.3344932,12.2419384 C18.6694989,13.4601229 18.7979943,14.7253231 18.7146971,15.9855286 C18.5458453,18.2097489 17.634964,19.9427444 16.1509052,20.8657902 C15.3854373,21.3312485 14.5083423,21.5837483 13.6112349,21.5969155 L13.4975184,21.5969155 C12.600369,21.5840279 11.7232014,21.3315071 10.9578481,20.8657902 C9.47264069,19.9427444 8.56175941,18.2097489 8.39290752,15.9855286 C8.30930076,14.7238796 8.43740254,13.4571885 8.77196278,12.2373688 C9.54176881,9.41525243 11.133064,6.8823604 13.3458963,4.95695984 C14.3001562,4.12392343 15.3870546,3.45449636 16.5621227,2.97606713 C18.645778,2.15126636 20.6111221,2.20610076 22.0963295,3.1291465 C23.581537,4.05219224 24.4912696,5.78404537 24.6601215,8.00940811 C24.7453302,9.27118201 24.6187809,10.538262 24.2856608,11.7587102 L24.2856608,11.7587102 Z M52.5677779,9.1003842 C49.686958,9.1003842 47.3586397,11.3371708 47.3586397,14.1828477 C47.3586397,17.009104 49.686958,19.2093343 52.5677779,19.2093343 C55.468125,19.2093343 57.7964432,17.0125312 57.7964432,14.1828477 C57.7964432,11.3383132 55.471571,9.10152658 52.5677779,9.10152658 L52.5677779,9.1003842 Z M52.5677779,16.5521507 C51.2399359,16.5521507 50.2291218,15.4840223 50.2291218,14.1634271 C50.2291218,12.842832 51.2399359,11.7587102 52.5677779,11.7587102 C53.9151471,11.7587102 54.9259611,12.8462592 54.9259611,14.1668543 C54.9259611,15.4874494 53.9151471,16.5567202 52.5677779,16.5567202 L52.5677779,16.5521507 Z M64.292072,5.19678266 L58.9910416,5.19678266 C58.8753259,5.1946553 58.7637108,5.23948008 58.6819809,5.32097955 C58.600251,5.40247902 58.5554761,5.51360331 58.5579997,5.62868124 L58.5579997,18.4816361 C58.5496573,18.6006009 58.5916875,18.7176194 58.6739295,18.8044026 C58.7561715,18.8911858 58.87114,18.939835 58.9910416,18.9386128 L64.292072,18.9386128 C68.534045,18.9386128 71.4814868,16.132896 71.4814868,12.0511604 C71.4814868,7.94429226 68.534045,5.19678266 64.292072,5.19678266 Z M64.4172751,16.2242867 L61.5169281,16.2242867 L61.5169281,7.90430884 L64.4172751,7.90430884 C66.7651204,7.90430884 68.3835715,9.65101296 68.3835715,12.0454484 C68.3835715,14.3999005 66.7651204,16.2242867 64.4172751,16.2242867 Z M82.0330069,9.37684096 L80.0400952,9.37684096 C79.8116825,9.3948043 79.6334853,9.58089016 79.6265803,9.80866186 L79.6265803,10.3969893 C79.1728627,9.65101296 78.1471162,9.10152658 76.8698148,9.10152658 C74.3841312,9.10152658 72.055813,11.0435783 72.055813,14.145149 C72.055813,17.229584 74.3634555,19.2070496 76.8502877,19.2070496 C78.1321837,19.2070496 79.1786059,18.6587056 79.6323236,17.9127292 L79.6323236,18.5204772 C79.6335723,18.7472785 79.8177969,18.9310065 80.0458384,18.9328776 L82.0387502,18.9328776 C82.1494847,18.935403 82.2564378,18.8927653 82.3347596,18.8148711 C82.4130813,18.7369768 82.455953,18.6306074 82.4534137,18.5204772 L82.4534137,9.80866186 C82.4568257,9.69550562 82.4140811,9.5857863 82.3349008,9.50445624 C82.2557205,9.42312618 82.146835,9.37709856 82.0330069,9.37684096 L82.0330069,9.37684096 Z M77.3970462,16.573856 C76.0772447,16.573856 75.0859578,15.5651315 75.0859578,14.1657119 C75.0859578,12.7662923 76.0772447,11.7587102 77.3970462,11.7587102 C78.7168477,11.7587102 79.7081346,12.7651499 79.7081346,14.1645695 C79.7081346,15.5639891 78.7179964,16.5727136 77.3970462,16.5727136 L77.3970462,16.573856 Z M93.2197317,5.19686034 L91.22682,5.19686034 C91.114138,5.1934809 91.0048124,5.2352515 90.9233889,5.31279382 C90.8419654,5.39033615 90.7952669,5.49715258 90.7937781,5.60926072 L90.7937781,10.3581482 C90.3343171,9.65101296 89.2936381,9.10152658 87.9922151,9.10152658 C85.5249099,9.10152658 83.2367945,11.0435783 83.2367945,14.145149 C83.2367945,17.229584 85.544437,19.2070496 88.0312693,19.2070496 C89.3131652,19.2070496 90.2803305,18.6587056 90.8133051,17.9127292 L90.8133051,18.5204772 C90.8139323,18.7475355 90.9985183,18.931624 91.22682,18.9328776 L93.2197317,18.9328776 C93.3305628,18.9357338 93.4377109,18.8932024 93.5161067,18.8152346 C93.5945024,18.7372667 93.6372671,18.6307034 93.6343952,18.5204772 L93.6343952,5.61154549 C93.6379105,5.50092868 93.5954302,5.39376099 93.5169615,5.31528816 C93.4384927,5.23681533 93.3309733,5.19397542 93.2197317,5.19686034 L93.2197317,5.19686034 Z M88.583771,16.597846 C87.2697128,16.597846 86.2864664,15.5788401 86.2864664,14.1645695 C86.2864664,12.750299 87.2731587,11.731293 88.583771,11.731293 C89.8943833,11.731293 90.8810756,12.750299 90.8810756,14.1645695 C90.8810756,15.5788401 89.8989779,16.597846 88.583771,16.597846 Z M104.404159,5.19686034 L102.414693,5.19686034 C102.301903,5.19348245 102.192459,5.23521821 102.110855,5.31272772 C102.02925,5.39023723 101.982297,5.49704926 101.980503,5.60926072 L101.980503,10.3581482 C101.526785,9.65101296 100.480363,9.10152658 99.1789399,9.10152658 C96.7116347,9.10152658 94.4235193,11.0435783 94.4235193,14.145149 C94.4235193,17.229584 96.7323105,19.2070496 99.2179941,19.2070496 C100.501039,19.2070496 101.467055,18.6587056 102.00003,17.9127292 L102.00003,18.5204772 C102.001285,18.7477204 102.186203,18.9316289 102.414693,18.9328776 L104.404159,18.9328776 C104.514891,18.9357481 104.621932,18.8931829 104.700149,18.8151769 C104.778366,18.7371709 104.820867,18.6305959 104.817674,18.5204772 L104.817674,5.61154549 C104.821513,5.50103679 104.779297,5.39385636 104.701007,5.31534453 C104.622717,5.23683269 104.515302,5.19395914 104.404159,5.19686034 L104.404159,5.19686034 Z M99.7681985,16.597846 C98.4529916,16.597846 97.4708939,15.5788401 97.4708939,14.1645695 C97.4708939,12.750299 98.4575862,11.731293 99.7681985,11.731293 C101.078811,11.731293 102.065503,12.750299 102.065503,14.1645695 C102.065503,15.5788401 101.085703,16.597846 99.7716445,16.597846 L99.7681985,16.597846 Z M115.316356,10.0451352 L112.342495,20.1883569 C111.768169,21.9933225 110.487422,23.0728748 108.49451,23.0728748 C107.588223,23.0728748 106.763491,22.8889511 106.1168,22.5211036 C105.740042,22.3074779 105.427608,22.1121304 105.427608,21.7991174 C105.427608,21.6049122 105.490784,21.5043825 105.60565,21.3227435 L106.196057,20.4431083 C106.362611,20.1974959 106.485517,20.1175291 106.664707,20.1175291 C106.806702,20.1210001 106.944054,20.1685314 107.057546,20.2534727 C107.428561,20.4922308 107.773156,20.6978598 108.298091,20.6978598 C108.911471,20.6978598 109.380121,20.5025123 109.632825,19.7759565 L109.887825,18.93402 L108.684038,18.93402 C108.429709,18.9421224 108.205697,18.7687886 108.151063,18.5216196 L105.489636,10.0451352 C105.390852,9.71155928 105.481595,9.37797979 105.974367,9.37797979 L108.070657,9.37797979 C108.326807,9.37797979 108.505997,9.46480448 108.618565,9.82922476 L110.583909,16.6549652 L112.421752,9.82922476 C112.480334,9.5938938 112.638848,9.37797979 112.954727,9.37797979 L114.943044,9.37797979 C115.334735,9.37684096 115.453046,9.65101296 115.316356,10.0451352 Z M46.6074756,13.0621696 L46.6074756,18.4804938 C46.6093011,18.5998249 46.5624659,18.7148178 46.4776126,18.799208 C46.3927593,18.8835982 46.2771354,18.9301778 46.1571494,18.928308 L44.5122793,18.928308 C44.3921978,18.9304999 44.2763844,18.8840238 44.1914596,18.7995625 C44.1065349,18.7151012 44.0598037,18.59992 44.0620076,18.4804938 L44.0620076,17.0582265 C43.0178827,18.3696826 41.2018634,19.1956257 39.148073,19.1956257 C35.2908986,19.1956257 32.2768349,16.3099654 32.2768349,12.201955 C32.2768349,7.93286843 35.5309669,4.99008895 39.6419935,4.99008895 C42.6767329,4.99008895 45.1026866,6.28783642 46.1801225,8.89818235 C46.2102998,8.96715729 46.2270596,9.04119549 46.2295145,9.11637756 C46.2295145,9.23975496 46.1479602,9.3334304 45.8849188,9.42367868 L43.9643722,10.1593735 C43.8485201,10.2071464 43.7187118,10.2091891 43.601398,10.1650855 C43.4985545,10.1046893 43.4180017,10.0129597 43.3716676,9.90347968 C42.6824762,8.6000203 41.4557155,7.71467321 39.5673311,7.71467321 C37.1184044,7.71467321 35.3644123,9.61674146 35.3644123,12.0831471 C35.3644123,14.4741554 36.8576603,16.4401971 39.6373989,16.4401971 C41.0996333,16.4401971 42.2655154,15.7547671 42.8088279,15.0019365 L41.074363,15.0019365 C40.954377,15.0038063 40.8387531,14.9572266 40.7538998,14.8728364 C40.6690465,14.7884463 40.6222112,14.6734533 40.6240912,14.5541222 L40.6240912,13.0815901 C40.6222112,12.962259 40.6690465,12.8472661 40.7538998,12.7628759 C40.8387531,12.6784857 40.954377,12.6319061 41.074363,12.6337759 L46.1571494,12.6337759 C46.2749128,12.6277996 46.389947,12.6703574 46.4751537,12.7514241 C46.5603605,12.8324907 46.6082066,12.9448992 46.6074756,13.0621696 L46.6074756,13.0621696 Z M115.370343,7.37081583 L115.370343,7.23944174 C115.370215,7.23022894 115.373484,7.22128849 115.379532,7.21430931 C115.386197,7.20846293 115.394767,7.20521623 115.403654,7.20517024 L116.243319,7.20517024 C116.252267,7.20486853 116.260962,7.20816251 116.26744,7.21430931 C116.273489,7.22128849 116.276757,7.23022894 116.276633,7.23944174 L116.276633,7.37081583 C116.276573,7.37965246 116.27331,7.38817156 116.26744,7.39480588 C116.260962,7.40095267 116.252267,7.40424665 116.243319,7.40394494 L115.936628,7.40394494 L115.936628,8.22760333 C115.936032,8.24627966 115.920948,8.26128148 115.902169,8.26187483 L115.743655,8.26187483 C115.734879,8.26183446 115.726532,8.25809862 115.720682,8.25159338 C115.71408,8.2453405 115.710344,8.23667 115.710344,8.22760333 L115.710344,7.40394494 L115.403654,7.40394494 C115.394623,7.40463898 115.385739,7.40137216 115.379334,7.39500253 C115.37293,7.3886329 115.369645,7.37979707 115.370343,7.37081583 L115.370343,7.37081583 Z M116.83832,7.23487221 L117.068051,7.76379569 L117.297781,7.23487221 C117.301297,7.22549986 117.307738,7.21749315 117.31616,7.21202454 C117.325724,7.20710081 117.336413,7.20473855 117.347173,7.20517024 L117.613661,7.20517024 C117.62248,7.20451172 117.631162,7.20762911 117.637525,7.21373856 C117.643887,7.219848 117.647324,7.22836827 117.646972,7.23715698 L117.646972,8.22874571 C117.647634,8.23751672 117.644499,8.24615165 117.638356,8.25247929 C117.632213,8.25880692 117.623646,8.26222528 117.614809,8.26187483 L117.465485,8.26187483 C117.456536,8.26217654 117.447842,8.25888256 117.441363,8.25273576 C117.434804,8.24653648 117.431424,8.23771396 117.432174,8.22874571 L117.432174,7.48048463 L117.185213,8.02425909 C117.18162,8.03452472 117.175263,8.0436129 117.166835,8.05053391 C117.157376,8.05573933 117.146607,8.05811932 117.135821,8.05738821 L117.014064,8.05738821 C117.003658,8.05795657 116.993303,8.05557997 116.984199,8.05053391 C116.975424,8.04393826 116.968987,8.03473576 116.965821,8.02425909 L116.720009,7.48048463 L116.720009,8.22874571 C116.720525,8.23747969 116.717343,8.24602989 116.711232,8.25232397 C116.705122,8.25861805 116.696642,8.26208149 116.687847,8.26187483 L116.535076,8.26187483 C116.526481,8.26176465 116.518305,8.25816262 116.512447,8.25190541 C116.506589,8.24564821 116.50356,8.23728041 116.504063,8.22874571 L116.504063,7.23715698 C116.50371,7.22836827 116.507147,7.219848 116.51351,7.21373856 C116.519872,7.20762911 116.528554,7.20451172 116.537374,7.20517024 L116.79582,7.20517024 C116.8062,7.20488455 116.816481,7.20724409 116.825685,7.21202454 C116.831987,7.21829742 116.836368,7.22622038 116.83832,7.23487221 L116.83832,7.23487221 Z" id="Path_27"></path>
                    </g>
                </g>
            </g>
        </g>
    </g>
</svg>