<?xml version="1.0" encoding="UTF-8"?>
<svg width="118px" height="24px" viewBox="0 0 118 24" version="1.1" xmlns="http://www.w3.org/2000/svg" xmlns:xlink="http://www.w3.org/1999/xlink">
    <title>Logos/Customers/Ionos</title>
    <g id="Contact" stroke="none" stroke-width="1" fill="none" fill-rule="evenodd">
        <g transform="translate(-446.000000, -1890.000000)" fill-rule="nonzero" id="3rd-Fold">
            <g transform="translate(135.000000, 1772.000000)">
                <g id="Logos" transform="translate(0.000000, 118.000000)">
                    <g id="Group" transform="translate(311.000000, 0.000000)">
                        <g id="Ionos" transform="translate(0.000000, -0.000000)">
                            <rect id="bg" fill="#FFFFFF" x="101.485081" y="7.48023205" width="16.1494801" height="16.1494801"></rect>
                            <path d="M108.130644,17.1941617 C108.11868,16.7975658 108.379896,16.3766143 109.032296,15.9450519 L110.425759,17.7982779 C110.143708,18.0510277 109.777189,18.18892 109.398483,18.1847613 C108.655071,18.1847613 108.149516,17.7982779 108.130644,17.1941617 Z M109.965283,13.35233 C109.965283,13.0238156 109.73476,12.8130906 109.369072,12.8130906 C109.01435,12.8130906 108.762748,13.0463907 108.762748,13.3633684 C108.762748,13.6695925 108.854259,13.8363779 109.277489,14.3802463 C109.779412,14.0176199 109.965283,13.6804172 109.965283,13.35233 L109.965283,13.35233 Z M101.750356,7.74543643 L117.369356,7.74543643 L117.369356,23.3644366 L101.750356,23.3644366 L101.750356,7.74543643 Z M112.646739,13.021964 L113.822853,13.021964 L113.822853,19.1970103 L115.291305,19.1965118 L115.291305,11.8439267 L112.646525,11.8439267 L112.646739,13.021964 Z M106.791946,17.2307662 C106.888086,18.5751615 107.911658,19.3301822 109.398412,19.338728 C110.157919,19.3432857 110.62808,19.1831946 111.163545,18.753911 L111.491134,19.1954436 L112.943918,19.1954436 L112.004594,17.9491823 C112.450826,17.38281 112.596176,16.7961415 112.596176,15.867214 C112.596176,15.8110966 112.580509,15.581927 112.580509,15.4236874 L111.400121,15.4236874 C111.411587,15.6045021 111.423978,15.770148 111.426328,15.8266927 C111.445129,16.3024796 111.353618,16.8881511 111.247792,16.983864 L109.977247,15.2603916 C110.835173,14.5467468 111.113908,14.0420466 111.113908,13.3629411 C111.113908,12.4340136 110.393071,11.7562611 109.375481,11.7562611 C108.277418,11.7562611 107.502528,12.4224767 107.502528,13.3289003 C107.502528,13.8612319 107.63862,14.1549935 108.301987,15.0045875 C107.27108,15.5994458 106.733977,16.4267496 106.791946,17.2309798 L106.791946,17.2307662 Z M103.24238,13.021964 L104.418637,13.021964 L104.418637,19.1970103 L105.887516,19.1965118 L105.887516,11.8439267 L103.24238,11.8439267 L103.24238,13.021964 Z" id="fill" fill="#003D8F"></path>
                            <path d="M88.4951932,11.5555774 L88.4951932,14.3435706 C88.847707,13.95901 89.4138657,13.6812718 89.9479777,13.6812718 C91.3153042,13.6812718 92.2018589,14.7388134 92.2018589,16.5332872 C92.2018589,18.3812433 91.3793265,19.3961272 90.0120711,19.3961272 C89.2429499,19.3957711 88.8477783,19.075304 88.4951932,18.7762013 L88.4951932,19.2675843 L87.7474364,19.2675843 L87.7474364,11.9293846 L88.4951932,11.5555774 Z M89.8945665,14.3537543 C89.2215854,14.3537543 88.6981557,14.8343839 88.4952644,15.186969 L88.4952644,17.8681398 C88.7943671,18.3808872 89.3498435,18.7227189 89.8945665,18.7227189 C90.9201326,18.7227901 91.4220554,17.8789644 91.4220554,16.5330023 C91.4221266,15.133629 90.9093792,14.3537543 89.8945665,14.3537543 Z" id="Combined-Shape" fill="#003D8F"></path>
                            <path d="M94.7871031,19.0966685 L92.7895244,13.8094587 L93.5479634,13.8094587 L94.9259722,17.6868978 C94.9900657,17.868567 95.0434057,18.0500939 95.1075703,18.2423742 L95.2998506,17.6868978 L96.6991527,13.8094587 L97.5003206,13.8094587 L94.7123987,21.3401523 L93.975253,21.3401523 L94.7871031,19.0966685 Z" id="by-path" fill="#003D8F"></path>
                            <path d="M75.8847388,23.9403517 C75.4783572,23.9404243 75.0730082,23.8994337 74.6748684,23.8180044 C72.9415246,23.4616104 71.4396483,22.3890079 70.5401298,20.8650775 L70.5176259,20.8237016 C70.07004,19.9289573 70.3644425,18.8764007 71.2016452,18.3739082 C71.4796861,18.2074442 71.7976788,18.1195286 72.1217421,18.1195284 C72.7791911,18.1211584 73.3847913,18.476795 73.7064878,19.0501651 C73.7249325,19.0828528 73.7460833,19.1182466 73.76816,19.1522873 L73.9608676,19.4145007 L74.2198762,19.6762867 C74.5564518,19.96746 74.9639686,20.1645607 75.4011894,20.2476441 C76.115336,20.3842658 76.8540564,20.2154191 77.4379363,19.7821121 C78.037359,19.3519646 78.412595,18.6759387 78.4605827,17.9397108 C78.5201163,17.2094735 78.2621443,16.488989 77.7526351,15.9624995 C77.7526351,15.9624995 72.2810499,10.2795484 72.035572,10.0160532 C71.7959904,9.77213176 71.5754119,9.51024691 71.3757657,9.23268896 C70.6037959,8.13847161 70.3623773,6.84841322 70.4815199,5.57138715 C70.5448488,4.68067605 70.8082045,3.81570856 71.2519942,3.04083595 C71.2519942,3.04083595 71.5026707,2.61689349 71.5764494,2.50921652 C71.8662941,2.08648472 72.4367257,1.53983894 72.8276956,1.23446933 C73.1568469,0.991339739 73.5084364,0.780157114 73.8776885,0.603789943 C76.7081098,-0.769675826 80.118709,0.282879884 81.6828445,3.01256362 C81.9299429,3.42622364 81.9981717,3.92259243 81.8718489,4.38758143 C81.7463706,4.86134755 81.4343797,5.26410454 81.0070148,5.50401783 C80.7383322,5.66248464 80.431965,5.74574861 80.1200329,5.74508036 C79.4666382,5.74365769 78.8648856,5.38968559 78.546183,4.81928631 C78.2005978,4.23367759 77.6209049,3.82397331 76.9535324,3.69366318 C76.2774016,3.56246238 75.577211,3.71997105 75.0223973,4.12807423 C74.4879829,4.53887361 74.1553442,5.159087 74.108781,5.83153528 C74.0527484,6.51197016 74.2899062,7.18395617 74.7606112,7.6784944 L80.3544725,13.4469035 C81.5797302,14.719304 82.2098757,16.4504453 82.0892681,18.2127488 C81.9301027,20.0063679 81.038563,21.631635 79.6423944,22.6779247 C78.5583118,23.4919893 77.2406448,23.9348245 75.8849524,23.9407078" id="ionos-path" fill="#003D8F"></path>
                            <path d="M58.1806724,0.0247883166 C61.4953857,0.0247883166 64.1856834,2.70584608 64.1970875,6.02053969 L64.1970875,6.02053969 L64.1970875,17.9212661 C64.1934775,21.2425562 61.5022112,23.9342367 58.1809217,23.9383577 C54.8594537,23.9341161 52.167907,21.2423782 52.1642574,17.92091 L52.1642574,17.92091 L52.1642574,6.02053969 C52.1756615,2.70584608 54.8659592,0.0247883166 58.1806724,0.0247883166 Z M58.1802574,3.63678832 L58.01814,3.64282494 C56.7782769,3.7276513 55.7985862,4.75941052 55.7969308,6.02053969 L55.7969308,6.02053969 L55.7969308,17.92091 C55.7900742,18.5552478 56.0390461,19.1656027 56.4876303,19.6141601 C56.9362145,20.0627175 57.5465843,20.311653 58.1809217,20.304898 C59.4968063,20.3031496 60.5631294,19.2367947 60.5646989,17.92091 L60.5646989,17.92091 L60.5646989,6.02053969 C60.5646989,4.72834485 59.4731165,3.63718974 58.1809217,3.63718974 L58.1802574,3.63678832 Z" id="Combined-Shape" fill="#003D8F"></path>
                            <path d="M31.1606254,4.74023774 L31.1606254,22.1202406 C31.1606254,23.1232773 31.9737474,23.9363993 32.9767841,23.9363993 C33.9798208,23.9363993 34.7929428,23.1232773 34.7929428,22.1202406 L34.7929428,12.2783377 L31.1606254,4.74023774 Z" id="ionos-path" fill="#003D8F"></path>
                            <path d="M41.0136378,11.6694501 L41.0136378,1.81957117 C41.0198914,0.820855097 41.8312745,0.0145366454 42.8300101,0.0145366454 C43.8287458,0.0145366454 44.6401289,0.820855097 44.6463824,1.81957117 L44.6463824,19.2079774 L41.0136378,11.6694501 Z" id="ionos-path" fill="#003D8F"></path>
                            <path d="M44.6161873,21.7289146 L44.6161873,22.1170359 C44.6113444,22.9566369 44.03371,23.6843605 43.217118,23.8796314 C42.4005259,24.0749023 41.5561654,23.6872191 41.1720198,22.9406365 L31.1833405,2.23404204 L31.1833405,1.81957117 C31.1821832,1.12036827 31.5860799,0.483769309 32.2191641,0.186968977 C32.6521895,-0.0276979377 33.1534346,-0.0588737364 33.609723,0.100480785 C34.0660113,0.259835307 34.4388673,0.596282917 34.6441036,1.03385688 L44.6161873,21.7289146 Z" id="ionos-path" fill="#003D8F"></path>
                            <path d="M17.5669422,0.0247883166 C20.8816554,0.0247883166 23.5719531,2.70584608 23.5833572,6.02053969 L23.5833572,6.02053969 L23.5833572,17.92091 C23.5794732,21.2421142 20.8883238,23.9336458 17.5671202,23.9380016 C14.2457451,23.9339202 11.5543333,21.2422855 11.5505271,17.92091 L11.5505271,17.92091 L11.5505271,6.02053969 C11.5619312,2.70584608 14.252229,0.0247883166 17.5669422,0.0247883166 Z M17.5671202,3.63718974 C16.2513696,3.63868052 15.1850377,4.70478945 15.1832718,6.02053969 L15.1832718,6.02053969 L15.1832718,17.92091 C15.1766547,18.7769672 15.6295609,19.5708434 16.369845,20.0007936 C17.1101292,20.4307437 18.0241113,20.4307437 18.7643954,20.0007936 C19.5046796,19.5708434 19.9575858,18.7769672 19.9509687,17.92091 L19.9509687,17.92091 L19.9509687,6.02053969 C19.9319158,4.71203153 18.8756323,3.65596891 17.5671202,3.63718974 Z" id="Combined-Shape" fill="#003D8F"></path>
                            <path d="M7.59018732e-15,21.9291709 C-0.00422476781,22.6397769 0.372434759,23.2982344 0.987137284,23.654773 C1.60183981,24.0113115 2.3604166,24.0113115 2.97511912,23.654773 C3.58982164,23.2982344 3.96648117,22.6397769 3.9622564,21.9291709 L3.9622564,1.9819412 C3.95568845,0.892449742 3.07063925,0.0126910636 1.9811282,0.0126910636 C0.891617159,0.0126910636 0.00656795688,0.892449742 7.59018732e-15,1.9819412 L7.59018732e-15,21.9291709 Z" id="ionos-path" fill="#003D8F"></path>
                        </g>
                    </g>
                </g>
            </g>
        </g>
    </g>
</svg>