<?xml version="1.0" encoding="UTF-8"?>
<svg width="60px" height="24px" viewBox="0 0 60 24" version="1.1" xmlns="http://www.w3.org/2000/svg" xmlns:xlink="http://www.w3.org/1999/xlink">
    <title>Logos/Customers/Thryv</title>
    <g id="Contact" stroke="none" stroke-width="1" fill="none" fill-rule="evenodd">
        <g transform="translate(-167.000000, -1890.000000)" id="3rd-Fold">
            <g transform="translate(165.000000, 1772.000000)">
                <g id="Logos" transform="translate(2.000000, 118.000000)">
                    <g id="Thryv" transform="translate(-0.000000, 0.000000)">
                        <path d="M20.7914401,19.637104 L20.7914401,10.0129419 C20.7175299,8.30094068 19.5379837,7.0293838 17.8652001,6.69527959 C17.0929141,6.54142574 16.2904606,6.49542042 15.4993199,6.47204066 C14.2760309,6.43659394 13.0527419,6.46223625 11.7653472,6.46223625 L11.7653472,2.26217679 L8.89567105,2.26217679 L8.89567105,19.6303164 L11.7992855,19.6303164 L11.7992855,8.75722295 C13.2141376,8.75722295 14.5792135,8.71498856 15.9397643,8.77230666 C16.7814354,8.80850757 17.4270183,9.29269471 17.6721286,10.1124944 C17.8523789,10.7158429 17.954194,11.3636883 17.9632442,11.9934332 C17.9956742,14.3449839 17.9760654,19.4236695 17.9760654,19.637104 L20.7914401,19.637104 Z" id="Path" fill="#000000"></path>
                        <path d="M25.2660231,19.6431375 C25.2660231,18.8082541 25.2554645,14.8148415 25.2660231,12.4791288 C25.2690399,12.0153046 25.3180619,11.5462012 25.3814135,11.086148 C25.5842894,9.61020684 26.3475252,8.88090939 27.8287457,8.74591017 C28.4237981,8.69085462 29.0233756,8.68406695 29.6327576,8.6554079 L29.6327576,6.46525299 C28.2103636,6.4908953 26.8090868,6.34232075 25.4379774,6.72318446 C23.8707798,7.15834954 22.8503667,8.13426567 22.5502009,9.76556906 C22.4461233,10.3229122 22.3903135,10.8953391 22.3865426,11.4624866 L22.3865426,19.6431375 L25.2660231,19.6431375 Z" id="Path" fill="#000000"></path>
                        <path d="M5.45288933,17.3705501 C3.97242305,17.2340425 3.20994143,16.5054993 3.00555714,15.0295581 C2.94220555,14.5687507 2.89318349,14.1004015 2.89016675,13.6358232 C2.88715001,12.7157168 2.88865838,10.7751973 2.89016675,8.7569967 L7.18525359,8.7569967 L7.18525359,6.52083647 L2.89393768,6.52083647 C2.89620023,4.25903394 2.89921698,2.3630114 2.89016675,2.32002283 L0.0106862297,2.32002283 C0.000881817231,2.47387668 -0.00741422408,12.07843 0.0106862297,14.6539737 C0.0152113431,15.2211212 0.0710210756,15.7935481 0.174344499,16.3508912 C0.474510357,17.9821946 1.49643181,18.9581108 3.06362943,19.3925217 C4.4347388,19.7741396 5.83450723,19.625565 7.25840959,19.6504531 L7.25840959,17.459544 C6.64751928,17.4316392 6.04794175,17.4248515 5.45288933,17.3705501" id="Fill-443" fill="#000000"></path>
                        <path d="M45.8883226,6.47287027 L48.6131951,6.47287027 C48.7625238,6.47287027 48.9736958,6.69988013 49.0362932,6.8635384 C50.1886887,9.85840931 52.7823329,16.6830346 52.9120528,16.9914965 C53.237861,16.3398801 55.6625676,10.0077381 56.8247676,6.88767233 C56.948454,6.55432231 57.1045704,6.46004911 57.4567751,6.46004911 L59.9576545,6.46004911 C59.9078782,6.6282325 56.6022828,14.6874595 54.9988843,18.5986659 C54.6715678,19.3965943 54.1383586,19.8279884 53.2635033,19.7993294 C53.0726944,19.7940501 52.8818854,19.7917875 52.6918307,19.7993294 C51.7739868,19.8377928 51.2166437,19.3882982 50.8757518,18.5534148 C49.6170161,15.4703042 46.3038788,7.48272475 45.8883226,6.47287027" id="Fill-446" fill="#000000"></path>
                        <path d="M34.2588565,23.9471238 C35.1397452,23.9471238 35.9482322,23.9312859 36.7559649,23.9554198 C37.0945942,23.9652242 37.2605151,23.8694426 37.4075812,23.5413719 C39.8677346,18.0539177 42.3452342,12.5740053 44.8182087,7.09107618 C44.8981524,6.91459676 44.9630123,6.73132966 45.0535146,6.50507399 C44.144721,6.50507399 43.3166252,6.51714096 42.4877753,6.49753214 C42.2004306,6.49074447 42.0654313,6.59105115 41.9523035,6.85275354 C41.3037039,8.35584539 40.637758,9.8506412 39.9755831,11.3484537 C39.2085764,13.080818 38.4408155,14.8116739 37.642133,16.6149316 C37.4317152,16.1209401 37.2484481,15.6963336 37.0704603,15.2709729 C35.9075061,12.4880281 34.7490771,9.7043292 33.5778269,6.92666373 C33.5084418,6.76375964 33.3395043,6.52920793 33.2090302,6.52468282 C32.2987282,6.48999028 31.3869178,6.50582818 30.4283479,6.50582818 C30.4803867,6.65214018 30.5060291,6.74943012 30.5460009,6.8391782 C32.3100409,10.7888481 34.0605057,14.7445514 35.853959,18.6798917 C36.1541248,19.3390499 36.236331,19.867734 35.8675343,20.5404675 C35.2747444,21.6227238 34.8063952,22.7713484 34.2588565,23.9471238" id="Fill-448" fill="#000000"></path>
                        <path d="M59.9578807,5.03456296 L54.1378307,2.39717601 L48.9437546,0.0395919087 C48.6511306,-0.0923905667 48.3200431,0.121798136 48.3200431,0.442327005 L48.3200431,1.94617304 C48.3200431,2.17695382 48.1428095,2.36851696 47.9135371,2.38661741 L32.823038,3.59557689 L14.8515499,5.03456296 L14.8523041,5.03456296 L59.9578807,5.03456296 Z" id="Fill-451" fill="#FF5000"></path>
                        <path d="M57.2240334,19.1790117 L57.279089,19.1790117 C57.3183066,19.1790117 57.3477199,19.1699615 57.3680829,19.1511069 C57.3884459,19.1322522 57.3982503,19.1058557 57.3982503,19.0711632 C57.3982503,19.0334539 57.3884459,19.0063032 57.3695913,18.9912195 C57.3499824,18.9761358 57.3190608,18.9685939 57.2775806,18.9685939 L57.2240334,18.9685939 L57.2240334,19.1790117 Z" id="Path" fill="#000000"></path>
                        <path d="M57.5498416,19.0681464 C57.5498416,19.1594029 57.5091156,19.2204919 57.4276635,19.2536761 L57.6162099,19.5696798 L57.4487807,19.5696798 L57.2956811,19.2944021 L57.2240334,19.2944021 L57.2240334,19.5696798 L57.0739505,19.5696798 L57.0739505,18.850941 L57.2821057,18.850941 C57.3748706,18.850941 57.4419931,18.8690414 57.4849816,18.9052424 C57.5279702,18.9414433 57.5498416,18.9957446 57.5498416,19.0681464 L57.5498416,19.0681464 Z" id="Path" fill="#000000"></path>
                        <path d="M56.8062146,19.2099333 C56.8062146,19.3004356 56.8288402,19.3841502 56.8733371,19.4610771 C56.9185883,19.5380041 56.9796773,19.5990931 57.0566042,19.64359 C57.1342854,19.688087 57.218,19.7107125 57.3069938,19.7107125 C57.3967419,19.7107125 57.4812107,19.688087 57.5581376,19.6420817 C57.6358188,19.5968305 57.6969078,19.5357415 57.7406506,19.4595688 C57.7851475,19.3826418 57.8077731,19.2996814 57.8077731,19.2099333 C57.8077731,19.1209394 57.7851475,19.0372248 57.7398964,18.9595437 C57.6953994,18.8818626 57.6343104,18.8207736 57.5558751,18.7762766 C57.4789482,18.7317797 57.3952336,18.7091541 57.3069938,18.7091541 C57.218,18.7091541 57.1350395,18.7317797 57.0581126,18.7755224 C56.9819399,18.8192652 56.9200967,18.8803542 56.8748455,18.9580353 C56.8288402,19.0349623 56.8062146,19.1194311 56.8062146,19.2099333 L56.8062146,19.2099333 Z" id="Path" fill="#000000"></path>
                        <path d="M56.7089247,19.2099333 C56.7089247,19.1035932 56.7353212,19.0047949 56.7881142,18.9112758 C56.8409072,18.818511 56.9140632,18.745355 57.006828,18.6918078 C57.0995928,18.6382607 57.1998995,18.6118642 57.3069938,18.6118642 C57.4125798,18.6118642 57.5128865,18.6382607 57.6056513,18.6910537 C57.6984162,18.7446008 57.7715722,18.8170026 57.8251193,18.9097675 C57.8786665,19.0025323 57.905063,19.102839 57.905063,19.2099333 C57.905063,19.3147651 57.8794207,19.4128092 57.8281361,19.5040657 C57.7768515,19.5960763 57.7044496,19.6692323 57.6116848,19.7250421 C57.51892,19.7800976 57.4171049,19.8080025 57.3069938,19.8080025 C57.1968828,19.8080025 57.0958219,19.7800976 57.0030571,19.7250421 C56.9102922,19.6707407 56.8378904,19.5968305 56.7858516,19.5048199 C56.734567,19.4135634 56.7089247,19.3147651 56.7089247,19.2099333 L56.7089247,19.2099333 Z" id="Path" fill="#000000"></path>
                    </g>
                </g>
            </g>
        </g>
    </g>
</svg>