<?xml version="1.0" encoding="UTF-8"?>
<svg width="54px" height="24px" viewBox="0 0 54 24" version="1.1" xmlns="http://www.w3.org/2000/svg" xmlns:xlink="http://www.w3.org/1999/xlink">
    <title>Logos/Customers/Bókun</title>
    <g id="Contact" stroke="none" stroke-width="1" fill="none" fill-rule="evenodd">
        <g transform="translate(-1221.000000, -1890.000000)" fill-rule="nonzero" id="3rd-Fold">
            <g transform="translate(165.000000, 1772.000000)">
                <g id="Logos" transform="translate(2.000000, 118.000000)">
                    <g id="bokun" transform="translate(1054.000000, 0.000000)">
                        <path d="M6.281496,20.2131499 C6.281496,19.7683223 5.907762,19.4157942 5.472279,19.4157942 L2.968947,19.4157942 L2.968947,21.0410309 L5.270751,21.0410309 C5.659146,21.0410309 5.893101,20.9342058 6.032853,20.7961051 C6.188076,20.6427282 6.281496,20.4435769 6.281496,20.2131499 Z M2.968947,15.3839914 L2.968947,16.932178 L4.493178,16.932178 C4.819797,16.932178 5.037552,16.8245757 5.16186,16.7025013 C5.301639,16.5644006 5.395059,16.3652492 5.395059,16.1508487 C5.395059,15.7212435 5.052996,15.383241 4.617513,15.383241 L2.968947,15.383241 L2.968947,15.3839914 Z M9.56394,20.2131499 C9.56394,21.1180811 9.206433,21.975737 8.584083,22.5739414 C7.977933,23.1866446 7.137828,23.5704485 5.754105,23.5704485 L0,23.5704485 L0,12.9469269 L4.898556,12.9316509 C6.329367,12.9316509 6.981849,13.2681526 7.619643,13.8976327 C8.241237,14.5263623 8.428104,15.2771663 8.428104,16.1515991 C8.428104,16.8871538 8.194905,17.3777827 7.946262,17.5921833 C8.101485,17.6074326 8.350884,17.6837324 8.584083,17.9141862 C9.237321,18.5581651 9.56394,19.2937198 9.56394,20.2131499 Z" id="Shape" fill="#2E3645"></path>
                        <path d="M43.00776,12.9469001 L43.00776,19.4165446 C43.00776,20.6732535 42.55686,21.7773361 41.65479,22.651742 C40.75299,23.5406736 39.64896,24 38.35863,24 C37.08369,24 35.99505,23.5406736 35.07705,22.651742 C34.17498,21.7773361 33.72408,20.6732535 33.72408,19.4165446 L33.72408,12.9469001 L37.08369,12.9469001 L37.08369,19.4165446 C37.08369,20.1215741 37.65825,20.6732535 38.35863,20.6732535 C39.0744,20.6732535 39.64896,20.1215741 39.64896,19.4165446 L39.64896,12.9469001 L43.00776,12.9469001 Z" id="Path" fill="#2E3645"></path>
                        <polygon id="Path" fill="#2E3645" points="50.6412 12.9316509 50.6412 17.7768358 47.18871 12.9316509 43.8453 12.9469269 43.8453 23.5711989 47.18871 23.5711989 47.18871 18.6657406 50.65659 23.5864749 50.68737 23.5711989 54 23.5711989 54 12.9316509"></polygon>
                        <polygon id="Path" fill="#2E3645" points="32.90949 12.9316509 28.68426 12.9316509 25.771608 16.6109255 25.771608 12.9316509 22.412727 12.9316509 22.412727 18.2514383 22.412727 23.5711989 25.771608 23.5711989 25.771608 19.891147 28.68426 23.5711989 32.90949 23.5711989 28.8279 18.2514383"></polygon>
                        <path d="M17.534151,16.5956763 C17.051553,16.1210738 16.492518,15.8906468 15.823053,15.8906468 C15.138927,15.8906468 14.579109,16.1210738 14.096511,16.5956763 C13.630896,17.0557799 13.396941,17.6227086 13.396941,18.2819368 C13.396941,18.9411917 13.630896,19.5081204 14.096511,19.9834733 C14.579109,20.4435769 15.138144,20.6732535 15.823053,20.6732535 C16.491735,20.6732535 17.051553,20.4435769 17.534151,19.9834733 C18.03141,19.5088708 18.264609,18.9411917 18.264609,18.2819368 C18.264609,17.6227086 18.03141,17.0557799 17.534151,16.5956763 Z M19.913175,22.3137395 C18.778095,23.417822 17.425287,23.9847508 15.823053,23.9847508 C14.221602,23.9847508 12.868794,23.417822 11.732931,22.3137395 C10.613322,21.1944077 10.03806,19.8461497 10.03806,18.2819368 C10.03806,16.7032517 10.613322,15.3542433 11.732931,14.2501608 C12.868794,13.1308022 14.220819,12.5638735 15.823053,12.5638735 C17.425287,12.5638735 18.777339,13.1308022 19.913175,14.2501608 C21.049011,15.3542433 21.624273,16.7032517 21.624273,18.2819368 C21.62349,19.8461497 21.048228,21.1944077 19.913175,22.3137395 Z" id="Shape" fill="#2E3645"></path>
                        <path d="M38.71206,0 L38.71071,0 L32.70564,6.00648562 L33.42141,4.91537431 L32.48316,4.02263713 L30.24621,5.87677327 L29.12193,5.52274433 L22.616523,11.3781579 L53.87958,11.3781579 L52.48125,10.3663748 L47.02752,5.68906557 L43.15734,7.93539396 L45.66915,6.20030373 L38.71206,0 Z M33.03612,6.90302841 L38.6613,1.24219671 L41.07645,4.39346972 C41.07645,4.39346972 39.90438,3.77160086 39.68352,3.77160086 C39.66894,3.77160086 39.65814,3.77465607 39.65274,3.78076648 C39.56526,3.87689834 37.50678,6.38723423 37.50678,6.38723423 L37.39095,4.90393068 L36.98109,5.72797927 L36.92304,4.98556369 L33.03612,6.90302841 Z M32.08464,5.12519207 L31.3821,6.6359925 L31.14126,6.4131767 L28.94346,8.82738074 C28.94346,8.82738074 28.93752,8.5122387 28.93428,8.39780239 C28.93428,8.38099875 28.91889,8.37413793 28.89351,8.37413793 C28.74285,8.37413793 28.23012,8.61906378 28.23012,8.61906378 L28.91187,7.22428086 L27.50031,7.52261926 L29.28555,6.1499464 L29.94435,6.82064499 L32.08464,5.12519207 Z M43.33662,8.63203502 L47.0961,6.47039485 L48.81033,7.8385117 L47.79972,7.86748258 L47.05209,8.65186707 L47.03373,7.69352332 L43.35282,8.63203502 L43.33662,8.63203502 Z" id="Shape" fill="#1D57C7"></path>
                        <polygon id="Path" fill="#2E3645" points="19.151208 8.97464713 16.65252 11.3758799 14.43177 11.3758799 16.65252 8.97464713"></polygon>
                    </g>
                </g>
            </g>
        </g>
    </g>
</svg>