<?xml version="1.0" encoding="UTF-8"?>
<svg width="66px" height="64px" viewBox="0 0 66 64" version="1.1" xmlns="http://www.w3.org/2000/svg" xmlns:xlink="http://www.w3.org/1999/xlink">
    <title>Icons/Control Access</title>
    <g id="Icons/Control-Access" stroke="none" stroke-width="1" fill="none" fill-rule="evenodd">
        <circle id="Oval" fill="#F2D4C7" cx="43.5" cy="40" r="22.5"></circle>
        <g id="Icon" transform="translate(0.000000, 1.500000)" stroke="#171C34">
            <path d="M25.4316949,36.7810044 C20.7260955,36.7810044 16.9114462,32.9664764 16.9114462,28.2607557 C16.9114462,23.5551563 20.7260955,19.7406283 25.4316949,19.7406283 C30.1372944,19.7406283 33.9519437,23.5551563 33.9519437,28.2607557 C33.9463639,32.9640504 30.1349897,36.7754246 25.4316949,36.7810044 Z" id="Stroke-13"></path>
            <path d="M43.961844,41.706691 C43.961844,40.2200355 44.8609213,38.9439572 46.1448841,38.3909495 L40.7415658,29.018688 L46.1283873,19.6791776 C44.8534006,19.1224096 43.961844,17.8510619 43.961844,16.3708354 C43.961844,16.2201805 43.9721545,16.0719516 43.990107,15.9260275 L33.1798314,15.9260275 L27.7739658,6.56419779 C27.1725593,7.0126447 26.4266842,7.27829218 25.6188248,7.27829218 C24.8114505,7.27829218 24.0660607,7.0130086 23.4647755,6.56504689 L18.0595164,15.9260275 L7.25008988,15.9260275 C7.26804231,16.0719516 7.27835283,16.2201805 7.27835283,16.3708354 C7.27835283,17.8509406 6.38703882,19.122167 5.11229481,19.678935 L10.497782,29.0161407 L5.11362911,38.3430359 C6.38764532,38.9000465 7.27835283,40.1710302 7.27835283,41.6504077 C7.27835283,41.8057933 7.26743581,41.9585102 7.24839168,42.1086799 L18.0587886,42.1086799 L23.4628347,51.467841 C24.0643625,51.0190302 24.8106014,50.7531401 25.6188248,50.7531401 C26.4287463,50.7531401 27.1761983,51.0198793 27.7783326,51.470267 L33.1806805,42.1145023 L43.9853763,42.1145023 C43.970335,41.9805869 43.961844,41.8447306 43.961844,41.706691 Z" id="Stroke-15"></path>
            <path d="M25.618849,7.27828005 C23.6257651,7.27828005 22.0100462,5.66256112 22.0100462,3.66947721 C22.0100462,1.676272 23.6256438,0.06067437 25.618849,0.06067437 C27.611933,0.06067437 29.2276519,1.676272 29.2276519,3.66947721 C29.2276519,5.66256112 27.611933,7.27828005 25.618849,7.27828005 Z" id="Stroke-17"></path>
            <path d="M25.618849,57.9708792 C23.6257651,57.9708792 22.0100462,56.3551603 22.0100462,54.3619551 C22.0100462,52.3688711 23.6256438,50.7531522 25.618849,50.7531522 C27.611933,50.7531522 29.2276519,52.3688711 29.2276519,54.3619551 C29.2276519,56.3551603 27.611933,57.9708792 25.618849,57.9708792 Z" id="Stroke-19"></path>
            <path d="M3.66948934,45.259344 C1.67640543,45.259344 0.0606865,43.643625 0.0606865,41.6504198 C0.0606865,39.6573359 1.67640543,38.041617 3.66948934,38.041617 C5.66257325,38.041617 7.27829218,39.6573359 7.27829218,41.6504198 C7.27829218,43.643625 5.66257325,45.259344 3.66948934,45.259344 Z" id="Stroke-21"></path>
            <path d="M3.66948934,19.9797352 C1.67640543,19.9797352 0.0606865,18.3640163 0.0606865,16.3709324 C0.0606865,14.3777272 1.67640543,12.7621296 3.66948934,12.7621296 C5.66257325,12.7621296 7.27829218,14.3777272 7.27829218,16.3709324 L7.27829218,16.3709324 C7.27829218,18.3640163 5.66257325,19.9797352 3.66948934,19.9797352 Z" id="Stroke-23"></path>
            <path d="M47.5706954,45.3154938 C45.5776115,45.3154938 43.9618925,43.6997749 43.9618925,41.706691 C43.9618925,39.7134858 45.5776115,38.0978881 47.5706954,38.0978881 C49.5637793,38.0978881 51.1794982,39.7134858 51.1794982,41.706691 C51.1794982,43.6997749 49.5637793,45.3154938 47.5706954,45.3154938 Z" id="Stroke-25"></path>
            <path d="M47.5706954,19.9797352 C45.5776115,19.9797352 43.9618925,18.3640163 43.9618925,16.3709324 C43.9618925,14.3777272 45.5776115,12.7621296 47.5706954,12.7621296 C49.5637793,12.7621296 51.1794982,14.3777272 51.1794982,16.3709324 C51.1794982,18.3640163 49.5637793,19.9797352 47.5706954,19.9797352 Z" id="Stroke-27"></path>
        </g>
    </g>
</svg>