<?xml version="1.0" encoding="UTF-8"?>
<svg width="76px" height="64px" viewBox="0 0 76 64" version="1.1" xmlns="http://www.w3.org/2000/svg" xmlns:xlink="http://www.w3.org/1999/xlink">
    <title>Icons/Sell</title>
    <g id="Icons/Sell" stroke="none" stroke-width="1" fill="none" fill-rule="evenodd">
        <circle id="Oval" fill="#F2D4C7" cx="50.5" cy="34" r="25.5"></circle>
        <g id="Icon" transform="translate(0.000000, 4.500000)" stroke="#171C34">
            <path d="M56.9417513,16.1121657 L56.9417513,48.8039203 L0.0578324544,48.8039203 L0.0578324544,16.1121657 L19.8942949,16.1121657 L19.8942949,23.6387093 C19.8942949,28.3917925 23.7467087,32.2452469 28.4997919,32.2452469 C33.2527594,32.2452469 37.1063294,28.3917925 37.1063294,23.6387093 L37.1063294,16.1121657 L56.9417513,16.1121657 Z" id="Stroke-1"></path>
            <path d="M52.3170627,23.8768606 L52.3170627,41.0390635 C50.5827828,41.0390635 49.1768598,42.445102 49.1768598,44.1793819 L7.82272394,44.1793819 C7.82272394,42.445102 6.41680101,41.0390635 4.6825211,41.0390635 L4.6825211,23.8768606 C6.41680101,23.8768606 7.82272394,22.4709377 7.82272394,20.7366578 L19.8943527,20.7366578 L19.8943527,23.6386862 C19.8943527,28.3917694 23.7467665,32.2452237 28.4997341,32.2452237 C33.2528172,32.2452237 37.1063872,28.3917694 37.1063872,23.6386862 L37.1063872,20.7366578 L49.1768598,20.7366578 C49.1768598,22.4709377 50.5827828,23.8768606 52.3170627,23.8768606 Z" id="Stroke-3"></path>
            <path d="M28.5002312,32.2453278 C23.7471481,32.2453278 19.8939249,28.3923359 19.8939249,23.6391371 L19.8939249,16.1120154 L37.1064219,16.1120154 L37.1064219,23.6391371 C37.1064219,28.3923359 33.25343,32.2453278 28.5002312,32.2453278 Z" id="Stroke-5"></path>
            <path d="M56.2074456,6.94266937 C54.5927154,2.79172819 50.5955471,0.0578093306 46.1418006,0.0578093306 L10.8860866,0.0578093306 C6.47997505,0.0578093306 2.51575801,2.73426572 0.868654564,6.8208073 L0.841252941,6.88879108 C0.324090669,8.1720426 0.0581677485,9.54270183 0.0581677485,10.9263103 L0.0581677485,16.1122698 L56.9420867,16.1122698 L56.9420867,10.8583266 C56.9420867,9.51876876 56.693044,8.19100406 56.2074456,6.94266937 Z" id="Stroke-7"></path>
            <path d="M35.9487785,4.68195079 L10.8865838,4.68195079 C8.89643976,4.68195079 6.98977241,5.65939473 5.84283529,7.28846166 C5.53586775,7.72445963 5.28613144,8.20057728 5.09871359,8.69970304 C6.45954523,8.90087951 7.50242556,10.0720966 7.50242556,11.487269 L49.4809022,11.487269 C49.4809022,10.0582223 50.5457501,8.87659959 51.9262369,8.69392211 C51.2503302,6.83662394 49.6478556,5.39312495 47.7419976,4.88879635 C47.2069144,4.74716349 46.6558759,4.68137647 46.1026406,4.68195079 L35.9487785,4.68195079 Z" id="Stroke-9"></path>
            <path d="M28.4997803,21.0154028 C29.276044,21.0154028 29.9075531,21.646912 29.9075531,22.42306 C29.9075531,23.1993237 29.276044,23.8308329 28.4997803,23.8308329 C27.7235166,23.8308329 27.0920075,23.1993237 27.0920075,22.42306 C27.0920075,21.646912 27.7235166,21.0154028 28.4997803,21.0154028 Z M27.3435937,25.9583318 L27.3435937,27.7903095 C27.3435937,28.4287558 27.8613341,28.9464961 28.4997803,28.9464961 C29.1382266,28.9464961 29.6559669,28.4287558 29.6559669,27.7903095 L29.6559669,25.9583318 C31.1428229,25.4708836 32.2199264,24.0707416 32.2199264,22.42306 C32.2199264,20.3717538 30.5510866,18.7030296 28.4997803,18.7030296 C26.448474,18.7030296 24.7796343,20.3718694 24.7796343,22.42306 C24.7796343,24.0707416 25.8567377,25.4708836 27.3435937,25.9583318 Z" id="Stroke-11"></path>
            <line x1="14.8570095" y1="20.7366347" x2="14.8570095" y2="44.1793588" id="Stroke-13"></line>
            <line x1="28.4997803" y1="32.2453278" x2="28.4997803" y2="44.1793704" id="Stroke-15"></line>
            <line x1="42.2586323" y1="20.7366347" x2="42.2586323" y2="44.1793588" id="Stroke-17"></line>
        </g>
    </g>
</svg>