<?xml version="1.0" encoding="UTF-8"?>
<svg width="66px" height="64px" viewBox="0 0 66 64" version="1.1" xmlns="http://www.w3.org/2000/svg" xmlns:xlink="http://www.w3.org/1999/xlink">
    <title>Icons/Results</title>
    <g id="Icons/Results" stroke="none" stroke-width="1" fill="none" fill-rule="evenodd">
        <circle id="Oval" fill="#F2D4C7" cx="43.5" cy="38.5" r="22.5"></circle>
        <g id="Icon" transform="translate(0.000000, 3.000000)" stroke="#171C34">
            <path d="M20.2774743,0.0811825476 C20.9904615,0.0247035342 22.2542398,0.0495639546 23.8951482,0.590821166 C24.0149851,0.631128838 26.8551071,1.57304913 29.0471686,1.21233168 C29.0699775,1.20883191 29.0766149,1.21896917 29.0768563,1.22210689 L29.0768563,8.53843207 C29.0768563,8.54338001 29.0709429,8.55025887 29.0598402,8.55327591 C27.6349519,8.93740561 25.2641609,8.33279053 24.4669379,8.0659634 C22.9855706,7.57720271 21.7415841,7.44445289 20.8266965,7.44445289 C20.6278131,7.44445289 20.4442563,7.45072833 20.2773536,7.46098627 L20.2773536,0.0811825476 L20.2774743,0.0811825476 Z" id="Stroke-1"></path>
            <path d="M26.932464,24.8193886 L26.932464,24.8193886 L26.9247404,24.8040621 L26.7151164,24.3850554 L26.7149957,24.3850554 L25.8353471,22.6279305 C25.7258889,22.4092554 22.9637272,16.8782945 22.8943353,16.7281666 C22.6022857,16.1615662 22.3317174,15.6660473 22.2040362,15.5135057 C21.6999489,14.9633181 21.0073569,14.6538903 20.2537,14.6419619 C19.4985949,14.6305988 18.7953829,14.9189072 18.275245,15.4540097 C18.0027458,15.7304913 17.7602964,16.2861097 17.5832564,16.6398276 L15.6260414,20.5505165 L14.428638,22.9433923 L0.0976917976,51.5804244 L26.4812353,51.5804244 L33.4029315,37.7491002 L26.932464,24.8193886 Z" id="Stroke-3"></path>
            <path d="M55.0670863,51.5804364 C53.3742847,48.1956781 48.8096219,39.0700936 46.270842,33.9979645 C46.2697559,33.9956715 46.2680663,33.9925338 46.2668595,33.9899995 C46.1902266,33.8368545 46.1151627,33.6869678 46.0423916,33.5414258 C46.0422709,33.5415464 46.0421503,33.5416671 46.0420296,33.5416671 C45.2279111,31.9199471 42.6585988,26.8096825 42.0858436,25.7527526 C41.6705781,24.9848552 40.6085795,24.9088258 39.9118844,25.2924728 C39.7501709,25.3816565 39.6034221,25.4950973 39.4818956,25.6280885 C39.1725886,25.9669625 36.1013612,32.3015425 36.1013612,32.3013011 L26.4533458,51.5804364 L55.0670863,51.5804364 Z" id="Stroke-5"></path>
            <line x1="20.2721109" y1="14.6423049" x2="20.2721109" y2="0.0603408262" id="Stroke-7"></line>
            <path d="M15.229759,21.3421882 C15.986071,21.9606817 17.0892219,22.1607718 17.9980755,21.7847278 C18.4940771,21.5794483 18.9221349,21.2289888 19.4265842,21.0455527 C22.4361432,19.9518149 23.3028789,25.5063086 26.3018179,23.5044414" id="Stroke-9"></path>
            <path d="M36.7911775,30.8869483 C37.2010124,31.1267428 37.759165,31.0231979 38.1947051,30.8017471 C38.6732079,30.5585736 39.0910078,30.1938736 39.5989568,30.0206954 C40.1625401,29.8286909 40.8097559,29.9004965 41.3174636,30.2112518 C41.8896153,30.5613492 42.2482811,31.1629473 42.6641501,31.6891193 C43.3831714,32.5989383 44.4820985,33.0014116 45.5929731,32.6480557" id="Stroke-11"></path>
        </g>
    </g>
</svg>