<svg width="74" height="51" viewBox="0 0 74 51" fill="none" xmlns="http://www.w3.org/2000/svg">
<circle cx="47.6309" cy="25.5" r="25.5" fill="#F2D4C7"/>
<circle cx="54.4284" cy="15.451" r="1.30537" fill="#171C34"/>
<path fill-rule="evenodd" clip-rule="evenodd" d="M61.3942 32.0136C60.8535 32.285 60.2551 32.4212 59.6502 32.4104C59.3973 32.4255 59.1436 32.4008 58.8983 32.3373C56.4338 31.7212 50.4186 30.2487 47.0664 28.0974C42.2835 29.8727 37.0829 28.4421 32.9057 27.3455C31.0793 26.7127 29.1673 26.3606 27.2352 26.3013C26.8175 27.4604 25.251 30.3322 20.4577 30.4784C16.4267 30.6142 12.9388 28.7031 11.9154 26.7816C11.9154 26.719 11.8423 26.719 11.7692 26.719C11.7182 26.7241 11.6704 26.7462 11.6334 26.7816L8.47963 29.8936C6.87768 31.4375 4.65985 32.1678 2.45403 31.8778C1.84438 31.7987 1.32307 31.4007 1.086 30.8335C0.884842 30.2349 1.04297 29.574 1.49328 29.1313L9.6388 21.2573C10.2586 20.7128 11.072 20.4417 11.8945 20.5054C12.6448 20.6706 13.4057 20.2748 13.7011 19.5655C12.0796 18.5585 10.8691 17.0075 10.2863 15.1899C9.51432 13.4428 9.53717 11.4468 10.3489 9.71781L10.6935 9.03902L11.247 9.37319C13.1486 10.628 14.9005 12.096 16.4685 13.7488C18.6615 12.4539 23.7786 11.2947 30.3577 12.7045C34.0358 13.5266 37.8151 13.8011 41.5734 13.5191C38.3079 12.7607 35.1504 11.5959 32.1747 10.052C29.8668 8.80927 30.0861 8.46465 30.0861 8.46465L32.6447 8.27668C43.7873 7.45168 51.5047 8.46465 57.7078 11.4096C60.5796 12.7776 62.0834 14.2187 62.3549 15.8583C62.6264 17.4978 61.3942 19.1374 60.2663 20.2339C58.3135 22.1032 55.473 23.0117 51.2958 22.782C54.285 24.9884 57.6102 26.6986 61.1435 27.8468C61.9528 28.1134 62.519 28.8449 62.5742 29.6952C62.6347 30.6257 62.1821 31.5149 61.3942 32.0136V32.0136Z" stroke="#171C34" stroke-width="0.870248" stroke-linecap="round" stroke-linejoin="round"/>
</svg>
