<?xml version="1.0" encoding="UTF-8"?>
<svg width="66px" height="64px" viewBox="0 0 66 64" version="1.1" xmlns="http://www.w3.org/2000/svg" xmlns:xlink="http://www.w3.org/1999/xlink">
    <title>Icons/Support</title>
    <g id="Icons/Support" stroke="none" stroke-width="1" fill="none" fill-rule="evenodd">
        <circle id="Oval" fill="#F2D4C7" cx="43.5" cy="39.5" r="22.5"></circle>
        <g id="Icon" transform="translate(0.000000, 2.000000)" stroke="#171C34">
            <path d="M47.4246522,15.3358104 C42.9487168,12.8364056 40.1663189,7.95035119 40.1663189,2.33249405 C40.1663189,1.04432228 39.1220077,1.10544218e-05 37.8338359,1.10544218e-05 L33.2506726,1.10544218e-05 L33.2506726,5.95281718 C33.2508937,10.2225876 29.7898648,13.6840587 25.5200944,13.6842798 L25.51921,13.6842798 L25.51921,48.6925281 L30.5124923,53.6856998 C30.820358,53.9935655 31.2378835,54.1666777 31.6732066,54.1666777 L45.9919991,54.1666777 C48.7789294,54.1666777 51.0381216,51.907375 51.0384046,49.1203342 L51.0384046,21.5638716 C51.0490655,18.9869753 49.6671522,16.6051896 47.4246522,15.3358104" id="Fill-1"></path>
            <path d="M20.051682,11.42029 C18.6000153,9.9713869 17.785415,8.00381037 17.7877364,5.95277296 L17.7877364,-3.31632653e-05 L13.2045731,-3.31632653e-05 C11.9164014,-3.31632653e-05 10.8720901,1.04427806 10.8720901,2.33244983 C10.8909932,5.01447364 10.2191054,7.65614881 8.92098469,10.0031131 C7.67935204,12.2375434 5.84210714,14.0835213 3.6137568,15.3357662 C1.3712568,16.605256 -0.0106564626,18.9869311 4.37496846e-06,21.5638274 L4.37496846e-06,49.12029 C4.37496846e-06,51.9073308 2.25947959,54.1666335 5.04640986,54.1666335 L19.3652024,54.1666335 C19.8005255,54.1666335 20.218051,53.9935213 20.5259167,53.6857662 L25.519199,48.6924838 L25.519199,13.6842355 C23.4681616,13.6868886 21.5004745,12.8721777 20.051682,11.42029" id="Fill-4"></path>
            <polygon id="Fill-7" points="0 42.4655612 25.5191327 42.4655612 25.5191327 37.2655612 0 37.2655612"></polygon>
            <polygon id="Fill-9" points="0 29.8756803 25.5191327 29.8756803 25.5191327 24.6756803 0 24.6756803"></polygon>
            <polygon id="Fill-10" points="25.5192432 42.4655612 51.0383759 42.4655612 51.0383759 37.2655612 25.5192432 37.2655612"></polygon>
            <path d="M44.1022949,29.8756803 L51.0383759,29.8756803 L51.0383759,24.6756803 L45.9651658,24.6756803 C45.8746332,25.7965401 45.7196593,26.6632068 45.5002441,27.2756803 C45.2808289,27.8881538 44.8148459,28.7548204 44.1022949,29.8756803 Z" id="Fill-11"></path>
            <path d="M45.8524702,23.6246369 C45.4062032,21.4125366 43.8344855,19.9766777 41.7970451,19.9766777 C40.6715944,19.9766777 39.4297406,20.44229 38.2264668,21.3154787 C37.0040689,20.4034889 35.7815604,19.9378767 34.6367645,19.9378767 C32.599324,19.9378767 31.0276063,21.3737355 30.6007951,23.6246369 C30.231909,25.5467798 30.7578784,27.8294073 32.419358,29.8756913 C33.6426403,31.3822985 35.4814328,32.7607849 38.0324617,33.7728172 C38.1566029,33.8245519 38.2963308,33.8245519 38.4205825,33.7728172 C44.4554124,31.3282423 46.4928529,26.9232764 45.8524702,23.6246369" id="Fill-12"></path>
            <path d="M25.5192432,29.8756803 L32.5192432,29.8756803 C31.7958971,28.9709155 31.3036428,28.1790221 31.0424805,27.5 C30.7813181,26.8209779 30.6069057,25.879538 30.5192432,24.6756803 L25.5192432,24.6756803 L25.5192432,29.8756803 Z" id="Fill-11"></path>
        </g>
    </g>
</svg>