<svg width="59" height="53" viewBox="0 0 59 53" fill="none" xmlns="http://www.w3.org/2000/svg">
<circle cx="33.5" cy="27.5" r="25.5" fill="#F2D4C7"/>
<path d="M16.9865 42.3893C20.1846 41.0293 23.1596 39.1221 25.7627 36.8219C28.3872 34.495 30.6927 31.6793 32.0793 28.4334C32.7646 26.8343 33.2161 25.1556 33.3649 23.4184C33.4499 22.4356 33.418 21.4421 33.418 20.454V17.309V9.00552C33.418 8.06521 33.4552 7.11425 33.418 6.174V6.14213C33.418 5.89775 33.2533 5.7065 33.0302 5.63213C31.192 4.99463 29.3486 4.35713 27.5105 3.71958C24.6099 2.70492 21.7092 1.69551 18.8086 0.691441C18.1711 0.468313 17.5283 0.197382 16.8749 0.0220685C16.6677 -0.0363688 16.519 0.0326937 16.333 0.0964428C16.0037 0.213315 15.669 0.324884 15.3396 0.441756C12.5611 1.40332 9.78805 2.36489 7.00957 3.32641C4.83677 4.08079 2.66922 4.82989 0.49643 5.58421C0.459242 5.59483 0.427367 5.61077 0.390175 5.62139C0.167048 5.70108 0.00236113 5.88702 0.00236113 6.13139V8.3786V15.9808C0.00236113 18.0527 -0.00295142 20.1245 0.00236113 22.1964C0.00767368 23.9123 0.315801 25.6229 0.878919 27.2433C2.0424 30.5688 4.17799 33.4907 6.69613 35.9238C9.21961 38.3623 12.1733 40.397 15.3449 41.8951C15.7061 42.0651 16.078 42.2298 16.4445 42.3892C16.7101 42.5007 17.0129 42.4689 17.1723 42.1979C17.3051 41.9748 17.2467 41.5817 16.9811 41.4701C13.852 40.142 10.9301 38.2932 8.38548 36.0407C5.83014 33.7776 3.58293 31.047 2.25489 27.8807C1.61739 26.3666 1.20303 24.7516 1.09141 23.1101C1.02235 22.0955 1.05953 21.0755 1.05953 20.0555V17.0486V8.92045V6.95487C1.05953 6.69455 1.0861 6.42361 1.05953 6.16861V6.13673C0.932034 6.30673 0.799221 6.47673 0.671721 6.64673C2.49917 6.01455 4.32138 5.38232 6.14893 4.75022C9.05486 3.7408 11.9608 2.73673 14.8667 1.72742C15.5308 1.49898 16.1949 1.27055 16.8536 1.03679H16.572C18.3942 1.66898 20.2217 2.30121 22.0439 2.93331C24.9498 3.94272 27.8504 4.94679 30.7564 5.95611C31.4205 6.18455 32.0792 6.41298 32.7433 6.64673C32.6158 6.47673 32.483 6.30673 32.3555 6.13673V8.3308V15.7471V21.7767C32.3555 23.4821 32.1324 25.1236 31.5905 26.7439C30.5068 29.9845 28.4136 32.8161 25.9751 35.1749C23.5155 37.5549 20.6414 39.5205 17.5442 40.9814C17.183 41.1514 16.8111 41.3161 16.4446 41.4755C16.1789 41.587 16.1205 41.9748 16.2533 42.2033C16.418 42.4689 16.7208 42.5008 16.9864 42.3892L16.9865 42.3893Z" fill="#171C34"/>
<path d="M8.08787 19.583L13.9582 25.4534C14.1601 25.6552 14.5054 25.6552 14.7073 25.4534C15.9132 24.2474 17.1245 23.0362 18.3304 21.8302L24.0626 16.098C24.5036 15.6571 24.9445 15.2162 25.3854 14.7752C25.8688 14.2918 25.1198 13.5374 24.6364 14.0262C23.4304 15.2321 22.2191 16.4434 21.0132 17.6493C19.1007 19.5619 17.1936 21.469 15.281 23.3815C14.8401 23.8225 14.3991 24.2634 13.9582 24.7043H14.7073C12.9967 22.9937 11.286 21.283 9.57006 19.5671C9.32569 19.3227 9.08132 19.0784 8.83694 18.834C8.3535 18.3452 7.60439 19.0996 8.08788 19.583L8.08787 19.583Z" fill="#171C34"/>
</svg>
