<?xml version="1.0" encoding="UTF-8"?>
<svg width="66px" height="64px" viewBox="0 0 66 64" version="1.1" xmlns="http://www.w3.org/2000/svg" xmlns:xlink="http://www.w3.org/1999/xlink">
    <title>Icons/Revenue</title>
    <g id="Icons/Revenue" stroke="none" stroke-width="1" fill="none" fill-rule="evenodd">
        <g id="Group" transform="translate(0.000000, 0.500000)">
            <circle id="Oval" fill="#F2D4C7" cx="43.5" cy="40.5" r="22.5"></circle>
            <g id="Group-11">
                <path d="M36.2611467,44.9493658 L43.5013091,44.9493658 C43.5013091,52.9461251 37.0177437,59.4296906 29.0209843,59.4296906 L21.7808219,59.4296906 C21.7808219,51.4328105 28.2643874,44.9493658 36.2611467,44.9493658 Z" id="Stroke-1" stroke="#000000"></path>
                <path d="M36.8162379,14.1315903 C38.7493613,15.2839828 39.88124,16.6692673 39.88124,18.1607407 C39.88124,19.6522142 38.7493613,21.0374986 36.8162379,22.1898911 C37.9143292,24.1531818 38.2015223,25.9185747 37.4557856,27.2109437 C36.7100489,28.5033127 35.0375714,29.1368269 32.7870875,29.1669943 C32.7569202,31.4174781 32.123406,33.0899556 30.831037,33.8356923 C29.538668,34.5814291 27.7732751,34.294236 25.8099844,33.1961447 C24.6575918,35.129268 23.2723074,36.2611467 21.780834,36.2611467 C20.2893605,36.2611467 18.9040761,35.129268 17.7516836,33.1961447 C15.7883929,34.294236 14.023,34.5814291 12.730631,33.8356923 C11.438262,33.0899556 10.8047478,31.4174781 10.7745804,29.1669943 C8.52409661,29.1368269 6.85161909,28.5033127 6.10588237,27.2109437 C5.36014564,25.9185747 5.64733875,24.1531818 6.74543005,22.1898911 C4.81230668,21.0374986 3.68042796,19.6522142 3.68042796,18.1607407 C3.68042796,16.6692673 4.81230668,15.2839828 6.74543005,14.1315903 C5.64733875,12.1682996 5.36014564,10.4029067 6.10588237,9.1105377 C6.85161909,7.81816871 8.52409661,7.1846545 10.7745804,7.15448716 C10.8047478,4.90400334 11.438262,3.23152582 12.730631,2.48578909 C14.023,1.74005237 15.7883929,2.02724547 17.7516836,3.12533677 C18.9040761,1.19221341 20.2893605,0.0603346868 21.780834,0.0603346868 C23.2723074,0.0603346868 24.6575918,1.19221341 25.8099844,3.12533677 C27.7732751,2.02724547 29.538668,1.74005237 30.831037,2.48578909 C32.123406,3.23152582 32.7569202,4.90400334 32.7870875,7.15448716 C35.0375714,7.1846545 36.7100489,7.81816871 37.4557856,9.1105377 C38.2015223,10.4029067 37.9143292,12.1682996 36.8162379,14.1315903 Z" id="Stroke-3" stroke="#000000"></path>
                <path d="M21.7808219,59.4296906 L14.5406595,59.4296906 C6.54390013,59.4296906 0.0603346868,52.9461251 0.0603346868,44.9493658 L7.3004971,44.9493658 C15.2972565,44.9493658 21.7808219,51.4328105 21.7808219,59.4296906 Z" id="Stroke-5" stroke="#000000"></path>
                <path d="M22.9875157,29.0210085 L22.9875157,26.4548536 C25.067011,25.9176335 26.6075969,24.0257791 26.6075969,21.7808461 C26.6075969,19.1193623 24.4423056,16.9540711 21.7808219,16.9540711 C20.4500801,16.9540711 19.3674344,15.8714255 19.3674344,14.5406836 C19.3674344,13.2099418 20.4500801,12.1272962 21.7808219,12.1272962 C22.7002019,12.1272962 23.5279938,12.6388136 23.9409244,13.4622615 C24.2397017,14.0580061 24.964804,14.2986209 25.560428,13.9999642 C26.1562934,13.7011868 26.3970288,12.9760845 26.0981308,12.3803398 C25.4593071,11.1064333 24.3217569,10.2087738 22.9875157,9.86764148 L22.9875157,7.30052123 C22.9875157,6.63406428 22.4471582,6.0938275 21.7808219,6.0938275 C21.1144856,6.0938275 20.5741282,6.63406428 20.5741282,7.30052123 L20.5741282,9.86667613 C18.4946329,10.4038962 16.954047,12.2957506 16.954047,14.5406836 C16.954047,17.2021673 19.1193382,19.3674586 21.7808219,19.3674586 C23.1115638,19.3674586 24.1942094,20.4501042 24.1942094,21.7808461 C24.1942094,23.1115879 23.1115638,24.1942335 21.7808219,24.1942335 C20.861442,24.1942335 20.0336501,23.682716 19.6207195,22.8592682 C19.3219421,22.2635235 18.5968398,22.0230295 18.0012158,22.3215655 C17.4053504,22.6203429 17.164615,23.3454451 17.4635131,23.9411898 C18.1023367,25.2152171 19.2398869,26.1127559 20.5741282,26.4538882 L20.5741282,29.0210085 C20.5741282,29.6874654 21.1144856,30.2277022 21.7808219,30.2277022 C22.4471582,30.2277022 22.9875157,29.6874654 22.9875157,29.0210085" id="Fill-7" stroke="#FFFFFF" fill="#171C34"></path>
                <line x1="21.7808219" y1="36.2611709" x2="21.7808219" y2="59.4296906" id="Stroke-9" stroke="#000000"></line>
            </g>
        </g>
    </g>
</svg>