<?xml version="1.0" encoding="UTF-8"?>
<svg width="66px" height="64px" viewBox="0 0 66 64" version="1.1" xmlns="http://www.w3.org/2000/svg" xmlns:xlink="http://www.w3.org/1999/xlink">
    <title>Icons/Collaboration</title>
    <g id="Icons/Collaboration" stroke="none" stroke-width="1" fill="none" fill-rule="evenodd">
        <circle id="Oval" fill="#F2D4C7" cx="43.5" cy="41" r="22.5"></circle>
        <g id="Icon" transform="translate(0.000000, 1.500000)" stroke="#171C34">
            <path d="M29.0384921,11.4635919 L18.8448413,11.4635919 C13.2149952,11.4635919 8.65119048,16.0273967 8.65119048,21.6572427 C8.65119048,27.2870887 13.2149952,31.8508935 18.8448413,31.8508935 L40.3051587,31.8508935 C44.7497246,31.8508935 48.3527778,35.4539467 48.3527778,39.8985125 C48.3527778,44.3430784 44.7497246,47.9461316 40.3051587,47.9461316 L22.6003968,47.9461316" id="Stroke-1"></path>
            <path d="M2.21309524,58.6773365 C2.21309524,59.2699095 1.73265238,59.7503524 1.14007937,59.7503524 C0.547506349,59.7503524 0.0670634921,59.2699095 0.0670634921,58.6773365 L0.0670634921,38.2900349 C0.0670634921,37.6974619 0.547506349,37.217019 1.14007937,37.217019 C1.73265238,37.217019 2.21309524,37.6974619 2.21309524,38.2900349 L2.21309524,58.6773365 Z" id="Stroke-3"></path>
            <polygon id="Stroke-5" points="22.6003968 56.0431228 2.21309524 57.014068 2.21309524 39.9532498 22.6003968 40.9221831"></polygon>
            <polygon id="Stroke-7" points="49.4257937 19.8642063 29.0384921 18.893127 29.0384921 3.76896825 49.4257937 2.80325397"></polygon>
            <path d="M51.5718254,21.5273675 C51.5718254,22.1199406 51.0913825,22.6003834 50.4988095,22.6003834 C49.9062365,22.6003834 49.4257937,22.1199406 49.4257937,21.5273675 L49.4257937,1.14006595 C49.4257937,0.547492937 49.9062365,0.0670500794 50.4988095,0.0670500794 C51.0913825,0.0670500794 51.5718254,0.547492937 51.5718254,1.14006595 L51.5718254,21.5273675 Z" id="Stroke-9"></path>
        </g>
    </g>
</svg>