<?xml version="1.0" encoding="UTF-8"?>
<svg width="66px" height="64px" viewBox="0 0 66 64" version="1.1" xmlns="http://www.w3.org/2000/svg" xmlns:xlink="http://www.w3.org/1999/xlink">
    <title>Icons/Innovation</title>
    <g id="Icons/Innovation" stroke="none" stroke-width="1" fill="none" fill-rule="evenodd">
        <circle id="Oval" fill="#F2D4C7" cx="43.5" cy="39.5" r="22.5"></circle>
        <g id="Icon" transform="translate(0.000000, 2.000000)" stroke="#171C34">
            <path d="M25.7049443,43.7727177 L28.2304612,46.2983439 C28.2304612,46.2983439 26.0977078,50.1382843 25.3868628,51.4183738 C25.2052425,51.7701332 25.1640199,52.1159881 25.5449742,52.4969423 C25.9259284,52.8778966 26.6879463,53.6395865 27.0687913,54.0206501 C27.4115845,54.363334 27.6798052,54.2065348 27.9655209,53.9208191 C30.4571412,51.4290895 37.932002,43.9541193 37.932002,43.9541193 C39.2229165,42.6612366 39.2178867,40.5538509 37.9274095,39.2611869 L34.0722704,35.4056103 L25.7049443,43.7727177 Z" id="Fill-1"></path>
            <path d="M12.0284125,32.3717972 C12.6592177,31.7428509 13.6818022,31.7426322 14.3126074,32.3717972 L18.6697445,36.3538847 L22.6199036,40.6794215 C23.2507087,41.3088052 23.25716,42.3230795 22.6265736,42.9521352 L22.6621103,42.9180199 C22.0310865,43.5469662 21.0010666,43.5545109 20.3703708,42.9249085 L12.0630746,34.618159 C11.4324881,33.9881193 11.4325974,32.9670656 12.0630746,32.3379006 L12.0284125,32.3717972 Z" id="Fill-3"></path>
            <path d="M11.3201372,29.3881183 L8.79451093,26.8626014 C8.79451093,26.8626014 4.95446123,28.9952455 3.67459046,29.7063091 C3.32272167,29.8878201 2.9768668,29.9290427 2.59591252,29.5481978 C2.21495825,29.1671342 1.45315905,28.4052256 1.07231412,28.0242714 C0.729520875,27.6815875 0.886429423,27.4133668 1.17214513,27.1276511 C3.66376541,24.6361402 11.1388449,17.16117 11.1388449,17.16117 C12.4317276,15.8702555 14.539004,15.8752853 15.8317773,17.1657624 L19.6872445,21.0210109 L11.3201372,29.3881183 Z" id="Fill-5"></path>
            <path d="M48.1729364,21.5357475 C48.1729364,21.5357475 56.9691093,12.0416322 54.5230855,0.531214712 L54.5309583,0.538868787 C43.0010775,-1.90256262 33.4920915,6.86004175 33.4920915,6.86004175 L40.7095567,14.6805388 L48.1729364,21.5357475 Z" id="Fill-7"></path>
            <polyline id="Fill-10" points="48.1729364 21.5357475 25.8013857 43.8693559 11.1227276 29.1906978 33.4920915 6.86004175"></polyline>
            <path d="M37.6699374,25.9509354 C35.2926909,28.3244642 31.4366769,28.3246829 29.0588837,25.9510447 C26.680325,23.5777346 26.6802157,19.7289374 29.058993,17.3552992 C31.4365676,14.9818797 35.2926909,14.9818797 37.6699374,17.3554085 C40.0491521,19.7291561 40.0491521,23.5777346 37.6699374,25.9509354" id="Fill-12"></path>
            <path d="M16.2320089,38.7821948 C16.2243549,38.7743221 16.2159354,38.7657932 16.2078439,38.7580298 C13.8230527,36.364163 10.0530924,36.1720457 7.44523956,38.2003757 C6.94674056,38.6161014 7.14410636,38.9900577 7.42982207,39.2757734 L15.7143748,47.5602167 C16.0000905,47.8459324 16.3740467,48.0432982 16.789663,47.5447992 C18.8182117,44.9369463 18.6258757,41.1670954 16.2320089,38.7821948" id="Fill-14"></path>
            <line x1="7.78972763" y1="43.2124394" x2="1.73513519" y2="49.2670318" id="Stroke-16"></line>
            <line x1="11.9870368" y1="47.2689463" x2="5.93244433" y2="53.3235388" id="Stroke-18"></line>
            <line x1="9.97148907" y1="45.1038489" x2="0.0383578529" y2="54.9001909" id="Stroke-20"></line>
        </g>
    </g>
</svg>