<?xml version="1.0" encoding="UTF-8"?>
<svg width="76px" height="64px" viewBox="0 0 76 64" version="1.1" xmlns="http://www.w3.org/2000/svg" xmlns:xlink="http://www.w3.org/1999/xlink">
    <title>Icons/Automation</title>
    <g id="Icons/Automation" stroke="none" stroke-width="1" fill="none" fill-rule="evenodd">
        <circle id="Oval" fill="#F2D4C7" cx="50.5" cy="37" r="25.5"></circle>
        <g id="Icon" transform="translate(0.000000, 1.500000)" stroke="#171C34">
            <path d="M0.906882591,54.1862575 L8.55779757,54.1862575 L8.55779757,36.2064032 L4.73392713,36.2064032 C2.62916599,36.2064032 0.906882591,37.9298202 0.906882591,40.0358283 L0.906882591,54.1862575 Z" id="Stroke-1"></path>
            <polygon id="Stroke-3" points="17.0729717 54.1862348 24.8876923 54.1862348 24.8876923 46.0097814 17.0729717 46.0097814"></polygon>
            <polygon id="Stroke-5" points="24.8878057 54.1862348 32.6993522 54.1862348 32.6993522 46.0097814 24.8878057 46.0097814"></polygon>
            <polygon id="Stroke-6" points="32.6992389 54.1862348 40.5107854 54.1862348 40.5107854 46.0097814 32.6992389 46.0097814"></polygon>
            <polygon id="Stroke-7" points="31.5745911 26.5316437 37.1400162 26.5316437 37.1400162 21.5801781 31.5745911 21.5801781"></polygon>
            <polygon id="Stroke-8" points="20.446915 26.5316437 26.009166 26.5316437 26.009166 21.5801781 20.446915 21.5801781"></polygon>
            <polygon id="Stroke-9" points="26.009166 26.5316437 31.5745911 26.5316437 31.5745911 21.5801781 26.009166 21.5801781"></polygon>
            <path d="M20.9225636,15.982332 C22.3428551,15.982332 23.4964097,14.8280972 23.4964097,13.4037247 C23.4964097,11.9825263 22.3428551,10.8282915 20.9225636,10.8282915 C19.499098,10.8282915 18.3455433,11.9825263 18.3455433,13.4037247 C18.34543,14.8280972 19.4989846,15.982332 20.9225636,15.982332 Z" id="Stroke-10"></path>
            <path d="M36.664481,15.982332 C38.0847725,15.982332 39.2383271,14.8280972 39.2383271,13.4037247 C39.2383271,11.9825263 38.0847725,10.8282915 36.664481,10.8282915 C35.2410154,10.8282915 34.0874607,11.9825263 34.0874607,13.4037247 C34.0874607,14.8280972 35.2410154,15.982332 36.664481,15.982332 Z" id="Stroke-11"></path>
            <path d="M3.38752389,5.38801619 C4.56681134,6.56798381 6.47874656,6.56798381 7.6612081,5.38801619 C8.84049555,4.20804858 8.84049555,2.29169231 7.6612081,1.1117247 C6.47874656,-0.068242915 4.56681134,-0.068242915 3.38752389,1.1117247 C2.20823644,2.29169231 2.20823644,4.20804858 3.38752389,5.38801619 Z" id="Stroke-12"></path>
            <path d="M49.9258138,5.38801619 C51.1051012,6.56798381 53.0170364,6.56798381 54.1963239,5.38801619 C55.3787854,4.20804858 55.3787854,2.29169231 54.1963239,1.1117247 C53.0170364,-0.068242915 51.1051012,-0.068242915 49.9258138,1.1117247 C48.7465263,2.29169231 48.7465263,4.20804858 49.9258138,5.38801619 Z" id="Stroke-13"></path>
            <path d="M49.0260729,54.1862575 L56.6319838,54.1862575 L56.6319838,39.4345652 C56.3396275,37.6115045 54.7522429,36.2064032 52.8531174,36.2064032 L49.0260729,36.2064032 L49.0260729,54.1862575 Z" id="Stroke-14"></path>
            <path d="M20.9225636,10.8283142 C22.3428551,10.8283142 23.4964097,11.982549 23.4964097,13.4037474 C23.4964097,14.8281198 22.3428551,15.9823547 20.9225636,15.9823547 C19.499098,15.9823547 18.3455433,14.8281198 18.3455433,13.4037474 C18.34543,11.982549 19.4989846,10.8283142 20.9225636,10.8283142 Z M39.2383045,13.4037474 C39.2383045,14.8281198 38.0847498,15.9823547 36.6644583,15.9823547 C35.2409927,15.9823547 34.0874381,14.8281198 34.0874381,13.4037474 C34.0874381,11.982549 35.2409927,10.8283142 36.6644583,10.8283142 C38.0847498,10.8283142 39.2383045,11.982549 39.2383045,13.4037474 Z M37.1400049,26.5316664 L46.5839401,26.5316664 L51.741268,26.5316664 C51.741268,14.6929943 42.7826283,4.94752065 31.278936,3.70645182 L31.278936,5.91539109 C31.278936,6.49409555 30.8065636,6.96998219 30.2250251,6.96998219 L27.3587093,6.96998219 C26.7803449,6.96998219 26.3047984,6.49409555 26.3047984,5.91539109 L26.3047984,3.70645182 C14.8012194,4.94752065 5.84575385,14.6931077 5.84575385,26.5316664 L11.0030818,26.5316664 L20.447017,26.5316664 L20.447017,21.5802008 L26.009268,21.5802008 L31.5746931,21.5802008 L37.1401182,21.5802008 L37.1401182,26.5316664 L37.1400049,26.5316664 Z" id="Stroke-15"></path>
            <polygon id="Stroke-16" points="17.0729603 46.0098154 24.8877943 46.0098154 32.6992275 46.0098154 40.5107741 46.0098154 40.5107741 54.1862688 49.0260615 54.1862688 49.0260615 36.2064146 49.0260615 32.7499449 46.5839401 32.7499449 11.0030818 32.7499449 8.55778623 32.7499449 8.55778623 36.2064146 8.55778623 54.1862688 17.0729603 54.1862688"></polygon>
            <polygon id="Stroke-17" points="11.0030931 32.7499787 46.5839514 32.7499787 46.5839514 26.5317117 37.1400162 26.5317117 31.5745911 26.5317117 26.009166 26.5317117 20.446915 26.5317117 11.0030931 26.5317117"></polygon>
            <path d="M27.3588,6.96995951 L30.2251158,6.96995951 C30.8067676,6.96995951 31.2790267,6.49407287 31.2790267,5.91536842 L31.2790267,3.70642915 L31.2790267,2.17595142 C31.2790267,1.59395951 30.8066543,1.12136032 30.2251158,1.12136032 L27.3588,1.12136032 C26.7804356,1.12136032 26.304889,1.59395951 26.304889,2.17595142 L26.304889,3.70642915 L26.304889,5.91536842 C26.3047757,6.49407287 26.7803223,6.96995951 27.3588,6.96995951 Z" id="Stroke-18"></path>
            <path d="M43.3545652,39.5553619 L43.3577393,39.5553619 C43.983715,39.5553619 44.4897555,39.0478478 44.4897555,38.4217587 C44.4897555,37.795783 43.9805409,37.2881555 43.3544518,37.2881555 C42.7283628,37.2881555 42.2208486,37.795783 42.2208486,38.4217587 C42.2208486,39.0478478 42.7285895,39.5553619 43.3545652,39.5553619 Z" id="Stroke-19"></path>
            <path d="M14.2260518,37.2881555 C13.6000761,37.2881555 13.0924486,37.795783 13.0924486,38.4217587 C13.0924486,39.0478478 13.6000761,39.5553619 14.2260518,39.5553619 L14.2325134,39.5553619 C14.8584891,39.5553619 15.3629425,39.0478478 15.3629425,38.4217587 C15.3629425,37.795783 14.8521409,37.2881555 14.2260518,37.2881555 Z" id="Stroke-20"></path>
            <line x1="7.66123077" y1="5.38801619" x2="12.5701862" y2="10.2969717" id="Stroke-21"></line>
            <line x1="50.0049053" y1="5.38801619" x2="45.0959498" y2="10.2969717" id="Stroke-22"></line>
        </g>
    </g>
</svg>